solid LIGGGHTS_STL_EXPORT
  facet normal 0 0 1
    outer loop
      vertex -0.003716 0.021775 0.000979
      vertex -0.006146 0.02124 0.000979
      vertex 0.021769 0.006419 0.000979
    endloop
  endfacet
  facet normal 0 0 1
    outer loop
      vertex -0.001244 0.022044 0.000979
      vertex -0.003716 0.021775 0.000979
      vertex 0.021769 0.006419 0.000979
    endloop
  endfacet
  facet normal 0 0 1
    outer loop
      vertex -0.008503 0.020444 0.000979
      vertex -0.01076 0.019398 0.000979
      vertex 0.021769 0.006419 0.000979
    endloop
  endfacet
  facet normal 0 0 1
    outer loop
      vertex 0.001244 0.022044 0.000979
      vertex -0.001244 0.022044 0.000979
      vertex 0.021769 0.006419 0.000979
    endloop
  endfacet
  facet normal 0 0 1
    outer loop
      vertex -0.006146 0.02124 0.000979
      vertex -0.008503 0.020444 0.000979
      vertex 0.021769 0.006419 0.000979
    endloop
  endfacet
  facet normal 0 0 1
    outer loop
      vertex -0.016677 0.014894 0.000979
      vertex -0.018288 0.012995 0.000979
      vertex 0.021769 0.006419 0.000979
    endloop
  endfacet
  facet normal 0 0 1
    outer loop
      vertex -0.018288 0.012995 0.000979
      vertex -0.019684 0.010933 0.000979
      vertex 0.021769 0.006419 0.000979
    endloop
  endfacet
  facet normal 0 0 1
    outer loop
      vertex -0.014872 0.016607 0.000979
      vertex -0.016677 0.014894 0.000979
      vertex 0.021769 0.006419 0.000979
    endloop
  endfacet
  facet normal 0 0 1
    outer loop
      vertex -0.012891 0.018114 0.000979
      vertex -0.014872 0.016607 0.000979
      vertex 0.021769 0.006419 0.000979
    endloop
  endfacet
  facet normal 0 0 1
    outer loop
      vertex 0.022435 0.004018 0.000979
      vertex 0.021769 0.006419 0.000979
      vertex -0.021769 0.006419 0.000979
    endloop
  endfacet
  facet normal -0 0 1
    outer loop
      vertex -0.020849 0.008733 0.000979
      vertex -0.021769 0.006419 0.000979
      vertex 0.021769 0.006419 0.000979
    endloop
  endfacet
  facet normal 0 0 1
    outer loop
      vertex 0.022837 0.00156 0.000979
      vertex 0.022435 0.004018 0.000979
      vertex -0.021769 0.006419 0.000979
    endloop
  endfacet
  facet normal 0 0 1
    outer loop
      vertex -0.019684 0.010933 0.000979
      vertex -0.020849 0.008733 0.000979
      vertex 0.021769 0.006419 0.000979
    endloop
  endfacet
  facet normal 0 0 1
    outer loop
      vertex -0.01076 0.019398 0.000979
      vertex -0.012891 0.018114 0.000979
      vertex 0.021769 0.006419 0.000979
    endloop
  endfacet
  facet normal 0 -0 1
    outer loop
      vertex 0.022837 -0.003414 0.000979
      vertex 0.022972 -0.000927 0.000979
      vertex -0.021769 0.006419 0.000979
    endloop
  endfacet
  facet normal 0 -0 1
    outer loop
      vertex 0.022435 -0.005872 0.000979
      vertex 0.022837 -0.003414 0.000979
      vertex -0.021769 0.006419 0.000979
    endloop
  endfacet
  facet normal 0 0 1
    outer loop
      vertex 0.022972 -0.000927 0.000979
      vertex 0.022837 0.00156 0.000979
      vertex -0.021769 0.006419 0.000979
    endloop
  endfacet
  facet normal -0 -0 1
    outer loop
      vertex -0.021769 -0.008273 0.000979
      vertex -0.020849 -0.010587 0.000979
      vertex -0.022435 0.004018 0.000979
    endloop
  endfacet
  facet normal -0 -0 1
    outer loop
      vertex -0.022837 0.00156 0.000979
      vertex -0.021769 -0.008273 0.000979
      vertex -0.022435 0.004018 0.000979
    endloop
  endfacet
  facet normal 0 0 1
    outer loop
      vertex 0.006146 0.02124 0.000979
      vertex 0.003716 0.021775 0.000979
      vertex 0.021769 0.006419 0.000979
    endloop
  endfacet
  facet normal 0 0 1
    outer loop
      vertex 0.008503 0.020444 0.000979
      vertex 0.006146 0.02124 0.000979
      vertex 0.021769 0.006419 0.000979
    endloop
  endfacet
  facet normal 0 0 1
    outer loop
      vertex 0.003716 0.021775 0.000979
      vertex 0.001244 0.022044 0.000979
      vertex 0.021769 0.006419 0.000979
    endloop
  endfacet
  facet normal 0.963616 -0.267292 0
    outer loop
      vertex -0.021769 0.006419 0.000979
      vertex -0.021769 0.006419 0.244654
      vertex -0.022435 0.004018 0.000979
    endloop
  endfacet
  facet normal 0.92925 -0.369451 0
    outer loop
      vertex -0.021769 0.006419 0.244654
      vertex -0.021769 0.006419 0.000979
      vertex -0.020849 0.008733 0.000979
    endloop
  endfacet
  facet normal 0 -0 1
    outer loop
      vertex 0.019684 -0.012787 0.000979
      vertex 0.020849 -0.010587 0.000979
      vertex -0.021769 0.006419 0.000979
    endloop
  endfacet
  facet normal 0 -0 1
    outer loop
      vertex 0.020849 -0.010587 0.000979
      vertex 0.021769 -0.008273 0.000979
      vertex -0.021769 0.006419 0.000979
    endloop
  endfacet
  facet normal 0 -0 1
    outer loop
      vertex 0.021769 -0.008273 0.000979
      vertex 0.022435 -0.005872 0.000979
      vertex -0.021769 0.006419 0.000979
    endloop
  endfacet
  facet normal -0 -0 1
    outer loop
      vertex -0.014872 -0.018461 0.000979
      vertex -0.012891 -0.019968 0.000979
      vertex -0.021769 0.006419 0.000979
    endloop
  endfacet
  facet normal 0 -0 1
    outer loop
      vertex 0.018288 -0.014849 0.000979
      vertex 0.019684 -0.012787 0.000979
      vertex -0.021769 0.006419 0.000979
    endloop
  endfacet
  facet normal -0.986909 0.16128 0
    outer loop
      vertex -0.022951 0.004132 0.244654
      vertex -0.022951 0.004132 0
      vertex -0.023362 0.001617 0
    endloop
  endfacet
  facet normal -0.963641 0.267199 0
    outer loop
      vertex -0.02227 0.006588 0.244654
      vertex -0.02227 0.006588 0
      vertex -0.022951 0.004132 0
    endloop
  endfacet
  facet normal 0.986889 -0.161403 0
    outer loop
      vertex -0.022435 0.004018 0.000979
      vertex -0.022435 0.004018 0.244654
      vertex -0.022837 0.00156 0.000979
    endloop
  endfacet
  facet normal -0.762656 0.646804 0
    outer loop
      vertex -0.017061 0.015257 0
      vertex -0.018708 0.013315 0
      vertex -0.017061 0.015257 0.244654
    endloop
  endfacet
  facet normal -0.99853 0.0542026 0
    outer loop
      vertex 0.022972 -0.000927 0.000979
      vertex 0.022837 -0.003414 0.000979
      vertex 0.022972 -0.000927 0.244654
    endloop
  endfacet
  facet normal -0.963616 0.267292 0
    outer loop
      vertex 0.022435 -0.005872 0.244654
      vertex 0.022435 -0.005872 0.000979
      vertex 0.021769 -0.008273 0.000979
    endloop
  endfacet
  facet normal 0.963642 -0.267199 0
    outer loop
      vertex 0.02227 -0.008442 0
      vertex 0.022951 -0.005986 0
      vertex 0.02227 -0.008442 0.244654
    endloop
  endfacet
  facet normal 0.929125 -0.369766 0
    outer loop
      vertex 0.02227 -0.008442 0.244654
      vertex 0.021328 -0.010809 0
      vertex 0.02227 -0.008442 0
    endloop
  endfacet
  facet normal -0.828042 0.560666 0
    outer loop
      vertex -0.020136 0.011206 0
      vertex -0.020136 0.011206 0.244654
      vertex -0.018708 0.013315 0
    endloop
  endfacet
  facet normal -0 -1 0
    outer loop
      vertex 0.001272 -0.024427 0
      vertex 0.001272 -0.024427 0.244654
      vertex -0.001272 -0.024427 0
    endloop
  endfacet
  facet normal 0 0 -1
    outer loop
      vertex -0.011008 -0.02172 0
      vertex -0.013188 -0.020406 0
      vertex 0.021328 0.008955 0
    endloop
  endfacet
  facet normal 0 0 -1
    outer loop
      vertex -0.008698 -0.02279 0
      vertex -0.011008 -0.02172 0
      vertex 0.021328 0.008955 0
    endloop
  endfacet
  facet normal -0 -0 -1
    outer loop
      vertex 0.022951 0.004132 0
      vertex 0.023362 0.001617 0
      vertex 0.02227 0.006588 0
    endloop
  endfacet
  facet normal 0 0 -1
    outer loop
      vertex 0.021328 0.008955 0
      vertex 0.02227 0.006588 0
      vertex 0.023362 0.001617 0
    endloop
  endfacet
  facet normal 0 0 -1
    outer loop
      vertex 0.021328 0.008955 0
      vertex 0.023362 0.001617 0
      vertex 0.0235 -0.000927 0
    endloop
  endfacet
  facet normal -0 0 -1
    outer loop
      vertex 0.017061 0.015257 0
      vertex -0.018708 -0.015169 0
      vertex 0.015214 0.01701 0
    endloop
  endfacet
  facet normal 0 -0 -1
    outer loop
      vertex 0.011008 0.019866 0
      vertex 0.013188 0.018552 0
      vertex -0.018708 -0.015169 0
    endloop
  endfacet
  facet normal 0 -0 -1
    outer loop
      vertex 0.013188 0.018552 0
      vertex 0.015214 0.01701 0
      vertex -0.018708 -0.015169 0
    endloop
  endfacet
  facet normal 0 -0 -1
    outer loop
      vertex 0.006287 0.021749 0
      vertex 0.008698 0.020936 0
      vertex -0.018708 -0.015169 0
    endloop
  endfacet
  facet normal 0 -0 -1
    outer loop
      vertex 0.008698 0.020936 0
      vertex 0.011008 0.019866 0
      vertex -0.018708 -0.015169 0
    endloop
  endfacet
  facet normal -0 0 -1
    outer loop
      vertex 0.006287 0.021749 0
      vertex -0.018708 -0.015169 0
      vertex 0.003802 0.022297 0
    endloop
  endfacet
  facet normal -0 0 -1
    outer loop
      vertex 0.003802 0.022297 0
      vertex -0.018708 -0.015169 0
      vertex 0.001272 0.022573 0
    endloop
  endfacet
  facet normal 0 0 -1
    outer loop
      vertex -0.013188 -0.020406 0
      vertex -0.015214 -0.018864 0
      vertex 0.021328 0.008955 0
    endloop
  endfacet
  facet normal -0 0 -1
    outer loop
      vertex 0.001272 0.022573 0
      vertex -0.018708 -0.015169 0
      vertex -0.001272 0.022573 0
    endloop
  endfacet
  facet normal 0 -0 -1
    outer loop
      vertex -0.003802 0.022297 0
      vertex -0.001272 0.022573 0
      vertex -0.018708 -0.015169 0
    endloop
  endfacet
  facet normal 0 -0 -1
    outer loop
      vertex -0.006287 0.021749 0
      vertex -0.003802 0.022297 0
      vertex -0.018708 -0.015169 0
    endloop
  endfacet
  facet normal 0 -0 -1
    outer loop
      vertex -0.008698 0.020936 0
      vertex -0.006287 0.021749 0
      vertex -0.018708 -0.015169 0
    endloop
  endfacet
  facet normal -0 0 -1
    outer loop
      vertex -0.011008 0.019866 0
      vertex -0.018708 -0.015169 0
      vertex -0.013188 0.018552 0
    endloop
  endfacet
  facet normal 0 -0 -1
    outer loop
      vertex -0.015214 0.01701 0
      vertex -0.013188 0.018552 0
      vertex -0.018708 -0.015169 0
    endloop
  endfacet
  facet normal 0 0 -1
    outer loop
      vertex -0.022951 0.004132 0
      vertex -0.02227 0.006588 0
      vertex -0.018708 -0.015169 0
    endloop
  endfacet
  facet normal 0 -0 -1
    outer loop
      vertex -0.011008 0.019866 0
      vertex -0.008698 0.020936 0
      vertex -0.018708 -0.015169 0
    endloop
  endfacet
  facet normal -0 -0 -1
    outer loop
      vertex -0.020136 0.011206 0
      vertex -0.018708 -0.015169 0
      vertex -0.021328 0.008955 0
    endloop
  endfacet
  facet normal -0 -0 -1
    outer loop
      vertex -0.018708 0.013315 0
      vertex -0.018708 -0.015169 0
      vertex -0.020136 0.011206 0
    endloop
  endfacet
  facet normal -0 0 -1
    outer loop
      vertex -0.017061 0.015257 0
      vertex -0.018708 -0.015169 0
      vertex -0.018708 0.013315 0
    endloop
  endfacet
  facet normal -0 0 -1
    outer loop
      vertex -0.015214 0.01701 0
      vertex -0.018708 -0.015169 0
      vertex -0.017061 0.015257 0
    endloop
  endfacet
  facet normal 0 0 -1
    outer loop
      vertex -0.02227 0.006588 0
      vertex -0.021328 0.008955 0
      vertex -0.018708 -0.015169 0
    endloop
  endfacet
  facet normal 0 0 -1
    outer loop
      vertex -0.023362 0.001617 0
      vertex -0.022951 0.004132 0
      vertex -0.018708 -0.015169 0
    endloop
  endfacet
  facet normal 0 0 -1
    outer loop
      vertex 0.02227 -0.008442 0
      vertex 0.021328 0.008955 0
      vertex 0.022951 -0.005986 0
    endloop
  endfacet
  facet normal -0 0 -1
    outer loop
      vertex 0.023362 -0.003471 0
      vertex 0.022951 -0.005986 0
      vertex 0.021328 0.008955 0
    endloop
  endfacet
  facet normal -0 0 -1
    outer loop
      vertex 0.0235 -0.000927 0
      vertex 0.023362 -0.003471 0
      vertex 0.021328 0.008955 0
    endloop
  endfacet
  facet normal -0 0 -1
    outer loop
      vertex 0.021328 -0.010809 0
      vertex 0.020136 -0.01306 0
      vertex 0.021328 0.008955 0
    endloop
  endfacet
  facet normal -0 0 -1
    outer loop
      vertex 0.020136 -0.01306 0
      vertex 0.018708 -0.015169 0
      vertex 0.021328 0.008955 0
    endloop
  endfacet
  facet normal 0 -0 -1
    outer loop
      vertex 0.017061 -0.017111 0
      vertex 0.021328 0.008955 0
      vertex 0.018708 -0.015169 0
    endloop
  endfacet
  facet normal -0 0 -1
    outer loop
      vertex 0.02227 -0.008442 0
      vertex 0.021328 -0.010809 0
      vertex 0.021328 0.008955 0
    endloop
  endfacet
  facet normal -0 0 -1
    outer loop
      vertex 0.015214 -0.018864 0
      vertex 0.013188 -0.020406 0
      vertex 0.021328 0.008955 0
    endloop
  endfacet
  facet normal 0 0 -1
    outer loop
      vertex 0.001272 -0.024427 0
      vertex -0.001272 -0.024427 0
      vertex 0.021328 0.008955 0
    endloop
  endfacet
  facet normal 0 -0 -1
    outer loop
      vertex 0.015214 -0.018864 0
      vertex 0.021328 0.008955 0
      vertex 0.017061 -0.017111 0
    endloop
  endfacet
  facet normal -0 0 -1
    outer loop
      vertex 0.008698 -0.02279 0
      vertex 0.006287 -0.023603 0
      vertex 0.021328 0.008955 0
    endloop
  endfacet
  facet normal -0 0 -1
    outer loop
      vertex 0.011008 -0.02172 0
      vertex 0.008698 -0.02279 0
      vertex 0.021328 0.008955 0
    endloop
  endfacet
  facet normal 0 -0 -1
    outer loop
      vertex 0.011008 -0.02172 0
      vertex 0.021328 0.008955 0
      vertex 0.013188 -0.020406 0
    endloop
  endfacet
  facet normal -0 0 -1
    outer loop
      vertex 0.006287 -0.023603 0
      vertex 0.003802 -0.024151 0
      vertex 0.021328 0.008955 0
    endloop
  endfacet
  facet normal 0 -0 -1
    outer loop
      vertex 0.001272 -0.024427 0
      vertex 0.021328 0.008955 0
      vertex 0.003802 -0.024151 0
    endloop
  endfacet
  facet normal 0 0 -1
    outer loop
      vertex -0.015214 -0.018864 0
      vertex -0.017061 -0.017111 0
      vertex 0.021328 0.008955 0
    endloop
  endfacet
  facet normal 0 0 -1
    outer loop
      vertex -0.017061 -0.017111 0
      vertex -0.018708 -0.015169 0
      vertex 0.021328 0.008955 0
    endloop
  endfacet
  facet normal -0 -0 -1
    outer loop
      vertex -0.023362 0.001617 0
      vertex -0.018708 -0.015169 0
      vertex -0.0235 -0.000927 0
    endloop
  endfacet
  facet normal 0 0 -1
    outer loop
      vertex -0.023362 -0.003471 0
      vertex -0.0235 -0.000927 0
      vertex -0.018708 -0.015169 0
    endloop
  endfacet
  facet normal 0 0 -1
    outer loop
      vertex -0.02227 -0.008442 0
      vertex -0.023362 -0.003471 0
      vertex -0.021328 -0.010809 0
    endloop
  endfacet
  facet normal 0 0 -1
    outer loop
      vertex -0.020136 -0.01306 0
      vertex -0.021328 -0.010809 0
      vertex -0.023362 -0.003471 0
    endloop
  endfacet
  facet normal 0 0 -1
    outer loop
      vertex -0.022951 -0.005986 0
      vertex -0.023362 -0.003471 0
      vertex -0.02227 -0.008442 0
    endloop
  endfacet
  facet normal -0 -0 -1
    outer loop
      vertex -0.023362 -0.003471 0
      vertex -0.018708 -0.015169 0
      vertex -0.020136 -0.01306 0
    endloop
  endfacet
  facet normal 0 -0 -1
    outer loop
      vertex -0.006287 -0.023603 0
      vertex 0.021328 0.008955 0
      vertex -0.003802 -0.024151 0
    endloop
  endfacet
  facet normal 0 -0 -1
    outer loop
      vertex -0.008698 -0.02279 0
      vertex 0.021328 0.008955 0
      vertex -0.006287 -0.023603 0
    endloop
  endfacet
  facet normal 0 -0 -1
    outer loop
      vertex -0.003802 -0.024151 0
      vertex 0.021328 0.008955 0
      vertex -0.001272 -0.024427 0
    endloop
  endfacet
  facet normal 0 -0 -1
    outer loop
      vertex 0.020136 0.011206 0
      vertex 0.021328 0.008955 0
      vertex -0.018708 -0.015169 0
    endloop
  endfacet
  facet normal 0 -0 -1
    outer loop
      vertex 0.017061 0.015257 0
      vertex 0.018708 0.013315 0
      vertex -0.018708 -0.015169 0
    endloop
  endfacet
  facet normal 0 -0 -1
    outer loop
      vertex 0.018708 0.013315 0
      vertex 0.020136 0.011206 0
      vertex -0.018708 -0.015169 0
    endloop
  endfacet
  facet normal -0.88374 0.467978 0
    outer loop
      vertex -0.021328 0.008955 0
      vertex -0.021328 0.008955 0.244654
      vertex -0.020136 0.011206 0
    endloop
  endfacet
  facet normal -0.762563 0.646914 0
    outer loop
      vertex 0.016677 -0.016748 0.000979
      vertex 0.016677 -0.016748 0.244654
      vertex 0.018288 -0.014849 0.000979
    endloop
  endfacet
  facet normal 0.762563 -0.646914 -8.67407e-19
    outer loop
      vertex -0.018288 0.012995 0.000979
      vertex -0.016677 0.014894 0.000979
      vertex -0.018288 0.012995 0.244654
    endloop
  endfacet
  facet normal 0.883739 -0.46798 0
    outer loop
      vertex -0.020849 0.008733 0.000979
      vertex -0.019684 0.010933 0.000979
      vertex -0.020849 0.008733 0.244654
    endloop
  endfacet
  facet normal 0.108181 -0.994131 0
    outer loop
      vertex -0.003716 0.021775 0.000979
      vertex -0.001244 0.022044 0.000979
      vertex -0.003716 0.021775 0.244654
    endloop
  endfacet
  facet normal -0.828075 0.560617 0
    outer loop
      vertex 0.018288 -0.014849 0.000979
      vertex 0.018288 -0.014849 0.244654
      vertex 0.019684 -0.012787 0.000979
    endloop
  endfacet
  facet normal 0.762656 -0.646804 0
    outer loop
      vertex 0.018708 -0.015169 0
      vertex 0.018708 -0.015169 0.244654
      vertex 0.017061 -0.017111 0
    endloop
  endfacet
  facet normal 0 -0 1
    outer loop
      vertex 0.01076 -0.021252 0.000979
      vertex 0.012891 -0.019968 0.000979
      vertex -0.021769 0.006419 0.000979
    endloop
  endfacet
  facet normal 0 -0 1
    outer loop
      vertex 0.012891 -0.019968 0.000979
      vertex 0.014872 -0.018461 0.000979
      vertex -0.021769 0.006419 0.000979
    endloop
  endfacet
  facet normal 0 -0 1
    outer loop
      vertex 0.014872 -0.018461 0.000979
      vertex 0.016677 -0.016748 0.000979
      vertex -0.021769 0.006419 0.000979
    endloop
  endfacet
  facet normal 0 -0 1
    outer loop
      vertex 0.016677 -0.016748 0.000979
      vertex 0.018288 -0.014849 0.000979
      vertex -0.021769 0.006419 0.000979
    endloop
  endfacet
  facet normal 0 -0 1
    outer loop
      vertex 0.008503 -0.022298 0.000979
      vertex 0.01076 -0.021252 0.000979
      vertex -0.021769 0.006419 0.000979
    endloop
  endfacet
  facet normal 0 -0 1
    outer loop
      vertex 0.006146 -0.023094 0.000979
      vertex 0.008503 -0.022298 0.000979
      vertex -0.021769 0.006419 0.000979
    endloop
  endfacet
  facet normal 0 1 0
    outer loop
      vertex -0.001272 0.022573 0.244654
      vertex 0.001272 0.022573 0
      vertex -0.001272 0.022573 0
    endloop
  endfacet
  facet normal -0.420304 0.907383 0
    outer loop
      vertex -0.008698 0.020936 0
      vertex -0.011008 0.019866 0
      vertex -0.011008 0.019866 0.244654
    endloop
  endfacet
  facet normal 0.215015 -0.976611 0
    outer loop
      vertex -0.003716 0.021775 0.000979
      vertex -0.003716 0.021775 0.244654
      vertex -0.006146 0.02124 0.000979
    endloop
  endfacet
  facet normal -0.516228 0.856451 0
    outer loop
      vertex -0.011008 0.019866 0
      vertex -0.013188 0.018552 0
      vertex -0.011008 0.019866 0.244654
    endloop
  endfacet
  facet normal 0.319963 -0.94743 0
    outer loop
      vertex -0.006146 0.02124 0.000979
      vertex -0.006146 0.02124 0.244654
      vertex -0.008503 0.020444 0.000979
    endloop
  endfacet
  facet normal 0.605641 0.795738 -0
    outer loop
      vertex 0.013188 0.018552 0
      vertex 0.013188 0.018552 0.244654
      vertex 0.015214 0.01701 0
    endloop
  endfacet
  facet normal 0.516228 0.856451 -0
    outer loop
      vertex 0.011008 0.019866 0
      vertex 0.011008 0.019866 0.244654
      vertex 0.013188 0.018552 0
    endloop
  endfacet
  facet normal -0.60545 -0.795883 0
    outer loop
      vertex 0.014872 0.016607 0.000979
      vertex 0.014872 0.016607 0.244654
      vertex 0.012891 0.018114 0.000979
    endloop
  endfacet
  facet normal -0.516091 -0.856534 -0
    outer loop
      vertex 0.01076 0.019398 0.244654
      vertex 0.01076 0.019398 0.000979
      vertex 0.012891 0.018114 0.000979
    endloop
  endfacet
  facet normal 0.108447 0.994102 0
    outer loop
      vertex 0.003802 0.022297 0.244654
      vertex 0.003802 0.022297 0
      vertex 0.001272 0.022573 0
    endloop
  endfacet
  facet normal -0.215015 -0.976611 0
    outer loop
      vertex 0.006146 0.02124 0.000979
      vertex 0.006146 0.02124 0.244654
      vertex 0.003716 0.021775 0.000979
    endloop
  endfacet
  facet normal -0.828075 -0.560617 0
    outer loop
      vertex 0.019684 0.010933 0.000979
      vertex 0.019684 0.010933 0.244654
      vertex 0.018288 0.012995 0.000979
    endloop
  endfacet
  facet normal -0.762563 -0.646914 0
    outer loop
      vertex 0.018288 0.012995 0.000979
      vertex 0.018288 0.012995 0.244654
      vertex 0.016677 0.014894 0.000979
    endloop
  endfacet
  facet normal 0.88374 0.467978 0
    outer loop
      vertex 0.021328 0.008955 0
      vertex 0.020136 0.011206 0
      vertex 0.021328 0.008955 0.244654
    endloop
  endfacet
  facet normal -0.99853 -0.0542026 0
    outer loop
      vertex 0.022837 0.00156 0.000979
      vertex 0.022972 -0.000927 0.000979
      vertex 0.022837 0.00156 0.244654
    endloop
  endfacet
  facet normal -0.688409 -0.725323 0
    outer loop
      vertex -0.017061 -0.017111 0
      vertex -0.015214 -0.018864 0
      vertex -0.017061 -0.017111 0.244654
    endloop
  endfacet
  facet normal 0.828075 -0.560617 0
    outer loop
      vertex -0.018288 0.012995 0.000979
      vertex -0.018288 0.012995 0.244654
      vertex -0.019684 0.010933 0.000979
    endloop
  endfacet
  facet normal -0.215349 0.976537 0
    outer loop
      vertex -0.003802 0.022297 0
      vertex -0.006287 0.021749 0
      vertex -0.003802 0.022297 0.244654
    endloop
  endfacet
  facet normal -0 -1 0
    outer loop
      vertex 0.001244 0.022044 0.000979
      vertex 0.001244 0.022044 0.244654
      vertex -0.001244 0.022044 0.000979
    endloop
  endfacet
  facet normal -0.319527 0.947577 4.33704e-19
    outer loop
      vertex -0.006287 0.021749 0
      vertex -0.008698 0.020936 0
      vertex -0.006287 0.021749 0.244654
    endloop
  endfacet
  facet normal 0.420485 -0.907299 0
    outer loop
      vertex -0.01076 0.019398 0.244654
      vertex -0.01076 0.019398 0.000979
      vertex -0.008503 0.020444 0.000979
    endloop
  endfacet
  facet normal -0.605641 0.795738 0
    outer loop
      vertex -0.013188 0.018552 0
      vertex -0.015214 0.01701 0
      vertex -0.015214 0.01701 0.244654
    endloop
  endfacet
  facet normal 0.516091 -0.856534 0
    outer loop
      vertex -0.012891 0.018114 0.000979
      vertex -0.01076 0.019398 0.000979
      vertex -0.012891 0.018114 0.244654
    endloop
  endfacet
  facet normal 0.60545 -0.795883 0
    outer loop
      vertex -0.012891 0.018114 0.000979
      vertex -0.012891 0.018114 0.244654
      vertex -0.014872 0.016607 0.000979
    endloop
  endfacet
  facet normal 0.68838 -0.72535 0
    outer loop
      vertex -0.014872 0.016607 0.000979
      vertex -0.014872 0.016607 0.244654
      vertex -0.016677 0.014894 0.000979
    endloop
  endfacet
  facet normal 0.688409 0.725323 8.67409e-19
    outer loop
      vertex 0.017061 0.015257 0
      vertex 0.015214 0.01701 0
      vertex 0.017061 0.015257 0.244654
    endloop
  endfacet
  facet normal -0.68838 -0.72535 -0
    outer loop
      vertex 0.014872 0.016607 0.244654
      vertex 0.014872 0.016607 0.000979
      vertex 0.016677 0.014894 0.000979
    endloop
  endfacet
  facet normal 0.215349 0.976537 -0
    outer loop
      vertex 0.006287 0.021749 0
      vertex 0.003802 0.022297 0
      vertex 0.003802 0.022297 0.244654
    endloop
  endfacet
  facet normal 0.986909 0.16128 -0
    outer loop
      vertex 0.022951 0.004132 0
      vertex 0.022951 0.004132 0.244654
      vertex 0.023362 0.001617 0
    endloop
  endfacet
  facet normal -0.963616 -0.267292 0
    outer loop
      vertex 0.022435 0.004018 0.000979
      vertex 0.022435 0.004018 0.244654
      vertex 0.021769 0.006419 0.000979
    endloop
  endfacet
  facet normal -0.420304 -0.907383 0
    outer loop
      vertex -0.011008 -0.02172 0
      vertex -0.008698 -0.02279 0
      vertex -0.011008 -0.02172 0.244654
    endloop
  endfacet
  facet normal -0.92925 -0.369451 0
    outer loop
      vertex 0.021769 0.006419 0.000979
      vertex 0.021769 0.006419 0.244654
      vertex 0.020849 0.008733 0.000979
    endloop
  endfacet
  facet normal 0.828042 0.560666 -0
    outer loop
      vertex 0.018708 0.013315 0
      vertex 0.018708 0.013315 0.244654
      vertex 0.020136 0.011206 0
    endloop
  endfacet
  facet normal -0.883739 -0.46798 0
    outer loop
      vertex 0.019684 0.010933 0.000979
      vertex 0.020849 0.008733 0.000979
      vertex 0.019684 0.010933 0.244654
    endloop
  endfacet
  facet normal 0.762656 0.646804 -0
    outer loop
      vertex 0.018708 0.013315 0
      vertex 0.017061 0.015257 0
      vertex 0.017061 0.015257 0.244654
    endloop
  endfacet
  facet normal -0.986889 -0.161403 -0
    outer loop
      vertex 0.022435 0.004018 0.244654
      vertex 0.022435 0.004018 0.000979
      vertex 0.022837 0.00156 0.000979
    endloop
  endfacet
  facet normal -0.420485 -0.907299 -0
    outer loop
      vertex 0.01076 0.019398 0.000979
      vertex 0.008503 0.020444 0.244654
      vertex 0.008503 0.020444 0.000979
    endloop
  endfacet
  facet normal -0.319963 -0.94743 0
    outer loop
      vertex 0.008503 0.020444 0.244654
      vertex 0.006146 0.02124 0.000979
      vertex 0.008503 0.020444 0.000979
    endloop
  endfacet
  facet normal 0 0 1
    outer loop
      vertex 0.020849 0.008733 0.000979
      vertex 0.016677 0.014894 0.000979
      vertex 0.021769 0.006419 0.000979
    endloop
  endfacet
  facet normal 0 0 1
    outer loop
      vertex 0.014872 0.016607 0.000979
      vertex 0.012891 0.018114 0.000979
      vertex 0.021769 0.006419 0.000979
    endloop
  endfacet
  facet normal 0 0 1
    outer loop
      vertex 0.012891 0.018114 0.000979
      vertex 0.01076 0.019398 0.000979
      vertex 0.021769 0.006419 0.000979
    endloop
  endfacet
  facet normal -0 -0 1
    outer loop
      vertex -0.022837 -0.003414 0.000979
      vertex -0.021769 -0.008273 0.000979
      vertex -0.022972 -0.000927 0.000979
    endloop
  endfacet
  facet normal -0 -0 1
    outer loop
      vertex -0.022435 -0.005872 0.000979
      vertex -0.021769 -0.008273 0.000979
      vertex -0.022837 -0.003414 0.000979
    endloop
  endfacet
  facet normal 0 0 1
    outer loop
      vertex -0.022837 0.00156 0.000979
      vertex -0.022972 -0.000927 0.000979
      vertex -0.021769 -0.008273 0.000979
    endloop
  endfacet
  facet normal 0 0 1
    outer loop
      vertex -0.021769 0.006419 0.000979
      vertex -0.022435 0.004018 0.000979
      vertex -0.016677 -0.016748 0.000979
    endloop
  endfacet
  facet normal 0 0 1
    outer loop
      vertex 0.01076 0.019398 0.000979
      vertex 0.008503 0.020444 0.000979
      vertex 0.021769 0.006419 0.000979
    endloop
  endfacet
  facet normal -0.319527 -0.947577 -4.33704e-19
    outer loop
      vertex -0.008698 -0.02279 0
      vertex -0.006287 -0.023603 0
      vertex -0.008698 -0.02279 0.244654
    endloop
  endfacet
  facet normal -0.215348 -0.976537 0
    outer loop
      vertex -0.003802 -0.024151 0
      vertex -0.003802 -0.024151 0.244654
      vertex -0.006287 -0.023603 0
    endloop
  endfacet
  facet normal -0.929125 0.369766 0
    outer loop
      vertex -0.02227 0.006588 0
      vertex -0.02227 0.006588 0.244654
      vertex -0.021328 0.008955 0
    endloop
  endfacet
  facet normal -0.688409 0.725323 -8.67409e-19
    outer loop
      vertex -0.015214 0.01701 0
      vertex -0.017061 0.015257 0
      vertex -0.015214 0.01701 0.244654
    endloop
  endfacet
  facet normal -0.108447 0.994102 0
    outer loop
      vertex -0.003802 0.022297 0
      vertex -0.003802 0.022297 0.244654
      vertex -0.001272 0.022573 0
    endloop
  endfacet
  facet normal 0.516091 0.856534 -0
    outer loop
      vertex -0.01076 -0.021252 0.000979
      vertex -0.012891 -0.019968 0.000979
      vertex -0.012891 -0.019968 0.244654
    endloop
  endfacet
  facet normal 0 0 1
    outer loop
      vertex 0.019684 0.010933 0.000979
      vertex 0.016677 0.014894 0.000979
      vertex 0.020849 0.008733 0.000979
    endloop
  endfacet
  facet normal 0 0 1
    outer loop
      vertex 0.018288 0.012995 0.000979
      vertex 0.016677 0.014894 0.000979
      vertex 0.019684 0.010933 0.000979
    endloop
  endfacet
  facet normal -0 -0 1
    outer loop
      vertex 0.014872 0.016607 0.000979
      vertex 0.021769 0.006419 0.000979
      vertex 0.016677 0.014894 0.000979
    endloop
  endfacet
  facet normal 0.420304 0.907383 -0
    outer loop
      vertex 0.008698 0.020936 0
      vertex 0.008698 0.020936 0.244654
      vertex 0.011008 0.019866 0
    endloop
  endfacet
  facet normal 0.319527 0.947577 -4.33704e-19
    outer loop
      vertex 0.008698 0.020936 0
      vertex 0.006287 0.021749 0
      vertex 0.008698 0.020936 0.244654
    endloop
  endfacet
  facet normal -0.108181 -0.994131 -0
    outer loop
      vertex 0.001244 0.022044 0.244654
      vertex 0.001244 0.022044 0.000979
      vertex 0.003716 0.021775 0.000979
    endloop
  endfacet
  facet normal 0.929125 0.369766 -0
    outer loop
      vertex 0.021328 0.008955 0
      vertex 0.021328 0.008955 0.244654
      vertex 0.02227 0.006588 0
    endloop
  endfacet
  facet normal 0.963641 0.267199 4.33704e-19
    outer loop
      vertex 0.02227 0.006588 0.244654
      vertex 0.022951 0.004132 0
      vertex 0.02227 0.006588 0
    endloop
  endfacet
  facet normal 0.68838 0.72535 8.67407e-19
    outer loop
      vertex -0.016677 -0.016748 0.244654
      vertex -0.014872 -0.018461 0.000979
      vertex -0.016677 -0.016748 0.000979
    endloop
  endfacet
  facet normal -0.516228 -0.856451 -0
    outer loop
      vertex -0.013188 -0.020406 0.244654
      vertex -0.013188 -0.020406 0
      vertex -0.011008 -0.02172 0
    endloop
  endfacet
  facet normal 0.319963 0.94743 0
    outer loop
      vertex -0.008503 -0.022298 0.244654
      vertex -0.006146 -0.023094 0.000979
      vertex -0.008503 -0.022298 0.000979
    endloop
  endfacet
  facet normal 0 -0 1
    outer loop
      vertex 0.003716 -0.023629 0.000979
      vertex 0.006146 -0.023094 0.000979
      vertex -0.021769 0.006419 0.000979
    endloop
  endfacet
  facet normal 0 -0 1
    outer loop
      vertex 0.001244 -0.023898 0.000979
      vertex 0.003716 -0.023629 0.000979
      vertex -0.021769 0.006419 0.000979
    endloop
  endfacet
  facet normal 0.762563 0.646914 0
    outer loop
      vertex -0.018288 -0.014849 0.000979
      vertex -0.016677 -0.016748 0.244654
      vertex -0.016677 -0.016748 0.000979
    endloop
  endfacet
  facet normal 0 0 1
    outer loop
      vertex -0.003716 -0.023629 0.000979
      vertex -0.021769 0.006419 0.000979
      vertex -0.006146 -0.023094 0.000979
    endloop
  endfacet
  facet normal -0 -0 1
    outer loop
      vertex -0.003716 -0.023629 0.000979
      vertex -0.001244 -0.023898 0.000979
      vertex -0.021769 0.006419 0.000979
    endloop
  endfacet
  facet normal -0 -0 1
    outer loop
      vertex -0.008503 -0.022298 0.000979
      vertex -0.006146 -0.023094 0.000979
      vertex -0.021769 0.006419 0.000979
    endloop
  endfacet
  facet normal -0 -0 1
    outer loop
      vertex -0.01076 -0.021252 0.000979
      vertex -0.008503 -0.022298 0.000979
      vertex -0.021769 0.006419 0.000979
    endloop
  endfacet
  facet normal -0 -0 1
    outer loop
      vertex -0.012891 -0.019968 0.000979
      vertex -0.01076 -0.021252 0.000979
      vertex -0.021769 0.006419 0.000979
    endloop
  endfacet
  facet normal 0 -0 1
    outer loop
      vertex -0.001244 -0.023898 0.000979
      vertex 0.001244 -0.023898 0.000979
      vertex -0.021769 0.006419 0.000979
    endloop
  endfacet
  facet normal 0.986909 -0.16128 0
    outer loop
      vertex 0.023362 -0.003471 0
      vertex 0.023362 -0.003471 0.244654
      vertex 0.022951 -0.005986 0
    endloop
  endfacet
  facet normal 0.998532 0.0541658 -1.08426e-19
    outer loop
      vertex 0.0235 -0.000927 0
      vertex 0.023362 0.001617 0
      vertex 0.0235 -0.000927 0.244654
    endloop
  endfacet
  facet normal -0 -0 1
    outer loop
      vertex -0.016677 -0.016748 0.000979
      vertex -0.014872 -0.018461 0.000979
      vertex -0.021769 0.006419 0.000979
    endloop
  endfacet
  facet normal 0 0 1
    outer loop
      vertex -0.016677 -0.016748 0.000979
      vertex -0.022435 0.004018 0.000979
      vertex -0.018288 -0.014849 0.000979
    endloop
  endfacet
  facet normal 0 0 1
    outer loop
      vertex -0.018288 -0.014849 0.000979
      vertex -0.022435 0.004018 0.000979
      vertex -0.019684 -0.012787 0.000979
    endloop
  endfacet
  facet normal 0.108448 -0.994102 0
    outer loop
      vertex 0.001272 -0.024427 0.244654
      vertex 0.001272 -0.024427 0
      vertex 0.003802 -0.024151 0
    endloop
  endfacet
  facet normal 0 0 1
    outer loop
      vertex -0.019684 -0.012787 0.000979
      vertex -0.022435 0.004018 0.000979
      vertex -0.020849 -0.010587 0.000979
    endloop
  endfacet
  facet normal -0.762656 -0.646804 -8.67409e-19
    outer loop
      vertex -0.018708 -0.015169 0
      vertex -0.017061 -0.017111 0
      vertex -0.018708 -0.015169 0.244654
    endloop
  endfacet
  facet normal -0.605641 -0.795738 0
    outer loop
      vertex -0.013188 -0.020406 0
      vertex -0.013188 -0.020406 0.244654
      vertex -0.015214 -0.018864 0
    endloop
  endfacet
  facet normal 0.420485 0.907299 0
    outer loop
      vertex -0.008503 -0.022298 0.244654
      vertex -0.008503 -0.022298 0.000979
      vertex -0.01076 -0.021252 0.000979
    endloop
  endfacet
  facet normal 0.215015 0.976611 -0
    outer loop
      vertex -0.006146 -0.023094 0.000979
      vertex -0.006146 -0.023094 0.244654
      vertex -0.003716 -0.023629 0.000979
    endloop
  endfacet
  facet normal 0.108181 0.994131 0
    outer loop
      vertex -0.001244 -0.023898 0.000979
      vertex -0.003716 -0.023629 0.000979
      vertex -0.001244 -0.023898 0.244654
    endloop
  endfacet
  facet normal 0 1 -0
    outer loop
      vertex 0.001244 -0.023898 0.000979
      vertex -0.001244 -0.023898 0.000979
      vertex -0.001244 -0.023898 0.244654
    endloop
  endfacet
  facet normal 0.99853 -0.0542026 0
    outer loop
      vertex -0.022837 0.00156 0.000979
      vertex -0.022837 0.00156 0.244654
      vertex -0.022972 -0.000927 0.000979
    endloop
  endfacet
  facet normal 0.60545 0.795883 0
    outer loop
      vertex -0.014872 -0.018461 0.244654
      vertex -0.012891 -0.019968 0.000979
      vertex -0.014872 -0.018461 0.000979
    endloop
  endfacet
  facet normal -0.929125 -0.369766 -0
    outer loop
      vertex -0.02227 -0.008442 0.244654
      vertex -0.02227 -0.008442 0
      vertex -0.021328 -0.010809 0
    endloop
  endfacet
  facet normal 0.688409 -0.725323 0
    outer loop
      vertex 0.017061 -0.017111 0
      vertex 0.017061 -0.017111 0.244654
      vertex 0.015214 -0.018864 0
    endloop
  endfacet
  facet normal 0.92925 0.369451 0
    outer loop
      vertex -0.020849 -0.010587 0.244654
      vertex -0.020849 -0.010587 0.000979
      vertex -0.021769 -0.008273 0.000979
    endloop
  endfacet
  facet normal 0.828075 0.560617 0
    outer loop
      vertex -0.018288 -0.014849 0.244654
      vertex -0.018288 -0.014849 0.000979
      vertex -0.019684 -0.012787 0.000979
    endloop
  endfacet
  facet normal -0.88374 -0.467978 -8.67409e-19
    outer loop
      vertex -0.020136 -0.01306 0.244654
      vertex -0.021328 -0.010809 0
      vertex -0.020136 -0.01306 0
    endloop
  endfacet
  facet normal 0.963616 0.267292 4.33704e-19
    outer loop
      vertex -0.022435 -0.005872 0.244654
      vertex -0.021769 -0.008273 0.000979
      vertex -0.022435 -0.005872 0.000979
    endloop
  endfacet
  facet normal -0.420485 0.907299 -4.33703e-19
    outer loop
      vertex 0.008503 -0.022298 0.244654
      vertex 0.01076 -0.021252 0.000979
      vertex 0.008503 -0.022298 0.000979
    endloop
  endfacet
  facet normal -0.828042 -0.560666 0
    outer loop
      vertex -0.018708 -0.015169 0
      vertex -0.018708 -0.015169 0.244654
      vertex -0.020136 -0.01306 0
    endloop
  endfacet
  facet normal 0.883739 0.46798 0
    outer loop
      vertex -0.020849 -0.010587 0.244654
      vertex -0.019684 -0.012787 0.000979
      vertex -0.020849 -0.010587 0.000979
    endloop
  endfacet
  facet normal -0.986909 -0.16128 0
    outer loop
      vertex -0.022951 -0.005986 0
      vertex -0.022951 -0.005986 0.244654
      vertex -0.023362 -0.003471 0
    endloop
  endfacet
  facet normal -0.963642 -0.267199 0
    outer loop
      vertex -0.022951 -0.005986 0
      vertex -0.02227 -0.008442 0
      vertex -0.022951 -0.005986 0.244654
    endloop
  endfacet
  facet normal 0.99853 0.0542026 0
    outer loop
      vertex -0.022837 -0.003414 0.244654
      vertex -0.022837 -0.003414 0.000979
      vertex -0.022972 -0.000927 0.000979
    endloop
  endfacet
  facet normal 0.516228 -0.856451 0
    outer loop
      vertex 0.011008 -0.02172 0.244654
      vertex 0.011008 -0.02172 0
      vertex 0.013188 -0.020406 0
    endloop
  endfacet
  facet normal 0.986889 0.161403 2.16852e-19
    outer loop
      vertex -0.022435 -0.005872 0.000979
      vertex -0.022837 -0.003414 0.000979
      vertex -0.022435 -0.005872 0.244654
    endloop
  endfacet
  facet normal -0.319963 0.94743 0
    outer loop
      vertex 0.008503 -0.022298 0.000979
      vertex 0.006146 -0.023094 0.000979
      vertex 0.008503 -0.022298 0.244654
    endloop
  endfacet
  facet normal -0.998532 -0.0541658 -1.08426e-19
    outer loop
      vertex -0.0235 -0.000927 0
      vertex -0.023362 -0.003471 0
      vertex -0.0235 -0.000927 0.244654
    endloop
  endfacet
  facet normal -0.998532 0.0541658 0
    outer loop
      vertex -0.0235 -0.000927 0
      vertex -0.0235 -0.000927 0.244654
      vertex -0.023362 0.001617 0
    endloop
  endfacet
  facet normal 0.215348 -0.976537 0
    outer loop
      vertex 0.006287 -0.023603 0
      vertex 0.006287 -0.023603 0.244654
      vertex 0.003802 -0.024151 0
    endloop
  endfacet
  facet normal -0.108448 -0.994102 0
    outer loop
      vertex -0.001272 -0.024427 0
      vertex -0.001272 -0.024427 0.244654
      vertex -0.003802 -0.024151 0
    endloop
  endfacet
  facet normal -0.108181 0.994131 0
    outer loop
      vertex 0.003716 -0.023629 0.000979
      vertex 0.001244 -0.023898 0.000979
      vertex 0.003716 -0.023629 0.244654
    endloop
  endfacet
  facet normal 0.319527 -0.947577 4.33704e-19
    outer loop
      vertex 0.006287 -0.023603 0
      vertex 0.008698 -0.02279 0
      vertex 0.006287 -0.023603 0.244654
    endloop
  endfacet
  facet normal 0.420304 -0.907383 0
    outer loop
      vertex 0.011008 -0.02172 0.244654
      vertex 0.008698 -0.02279 0
      vertex 0.011008 -0.02172 0
    endloop
  endfacet
  facet normal -0.60545 0.795883 0
    outer loop
      vertex 0.012891 -0.019968 0.000979
      vertex 0.012891 -0.019968 0.244654
      vertex 0.014872 -0.018461 0.000979
    endloop
  endfacet
  facet normal -0.215015 0.976611 0
    outer loop
      vertex 0.006146 -0.023094 0.000979
      vertex 0.003716 -0.023629 0.000979
      vertex 0.006146 -0.023094 0.244654
    endloop
  endfacet
  facet normal 0.605641 -0.795738 0
    outer loop
      vertex 0.013188 -0.020406 0
      vertex 0.015214 -0.018864 0
      vertex 0.013188 -0.020406 0.244654
    endloop
  endfacet
  facet normal -0.516091 0.856534 0
    outer loop
      vertex 0.01076 -0.021252 0.000979
      vertex 0.01076 -0.021252 0.244654
      vertex 0.012891 -0.019968 0.000979
    endloop
  endfacet
  facet normal -0.68838 0.72535 8.67407e-19
    outer loop
      vertex 0.016677 -0.016748 0.000979
      vertex 0.014872 -0.018461 0.000979
      vertex 0.016677 -0.016748 0.244654
    endloop
  endfacet
  facet normal 0.828042 -0.560666 8.67409e-19
    outer loop
      vertex 0.018708 -0.015169 0
      vertex 0.020136 -0.01306 0
      vertex 0.018708 -0.015169 0.244654
    endloop
  endfacet
  facet normal 0.88374 -0.467978 0
    outer loop
      vertex 0.021328 -0.010809 0
      vertex 0.021328 -0.010809 0.244654
      vertex 0.020136 -0.01306 0
    endloop
  endfacet
  facet normal -0.883739 0.46798 0
    outer loop
      vertex 0.020849 -0.010587 0.244654
      vertex 0.020849 -0.010587 0.000979
      vertex 0.019684 -0.012787 0.000979
    endloop
  endfacet
  facet normal -0.92925 0.369451 0
    outer loop
      vertex 0.020849 -0.010587 0.244654
      vertex 0.021769 -0.008273 0.000979
      vertex 0.020849 -0.010587 0.000979
    endloop
  endfacet
  facet normal -0.986889 0.161403 -2.16852e-19
    outer loop
      vertex 0.022837 -0.003414 0.000979
      vertex 0.022435 -0.005872 0.000979
      vertex 0.022837 -0.003414 0.244654
    endloop
  endfacet
  facet normal 0.998532 -0.0541658 1.08426e-19
    outer loop
      vertex 0.023362 -0.003471 0
      vertex 0.0235 -0.000927 0
      vertex 0.023362 -0.003471 0.244654
    endloop
  endfacet
  facet normal 0.92925 -0.369451 0
    outer loop
      vertex -0.020849 0.008733 0.000979
      vertex -0.020849 0.008733 0.244654
      vertex -0.021769 0.006419 0.244654
    endloop
  endfacet
  facet normal -0.762656 0.646804 0
    outer loop
      vertex -0.018708 0.013315 0.244654
      vertex -0.017061 0.015257 0.244654
      vertex -0.018708 0.013315 0
    endloop
  endfacet
  facet normal -0.828042 0.560666 0
    outer loop
      vertex -0.018708 0.013315 0.244654
      vertex -0.018708 0.013315 0
      vertex -0.020136 0.011206 0.244654
    endloop
  endfacet
  facet normal -0.88374 0.467978 0
    outer loop
      vertex -0.020136 0.011206 0.244654
      vertex -0.020136 0.011206 0
      vertex -0.021328 0.008955 0.244654
    endloop
  endfacet
  facet normal 0.828075 -0.560617 0
    outer loop
      vertex -0.019684 0.010933 0.244654
      vertex -0.019684 0.010933 0.000979
      vertex -0.018288 0.012995 0.244654
    endloop
  endfacet
  facet normal -0.319527 0.947577 0
    outer loop
      vertex -0.008698 0.020936 0
      vertex -0.008698 0.020936 0.244654
      vertex -0.006287 0.021749 0.244654
    endloop
  endfacet
  facet normal 0.215015 -0.976611 0
    outer loop
      vertex -0.006146 0.02124 0.244654
      vertex -0.006146 0.02124 0.000979
      vertex -0.003716 0.021775 0.244654
    endloop
  endfacet
  facet normal -0.516228 0.856451 0
    outer loop
      vertex -0.013188 0.018552 0.244654
      vertex -0.011008 0.019866 0.244654
      vertex -0.013188 0.018552 0
    endloop
  endfacet
  facet normal 0.319963 -0.94743 0
    outer loop
      vertex -0.008503 0.020444 0.244654
      vertex -0.008503 0.020444 0.000979
      vertex -0.006146 0.02124 0.244654
    endloop
  endfacet
  facet normal -0.605641 0.795738 -8.67409e-19
    outer loop
      vertex -0.013188 0.018552 0
      vertex -0.015214 0.01701 0.244654
      vertex -0.013188 0.018552 0.244654
    endloop
  endfacet
  facet normal 0.420485 -0.907299 4.33703e-19
    outer loop
      vertex -0.008503 0.020444 0.244654
      vertex -0.01076 0.019398 0.244654
      vertex -0.008503 0.020444 0.000979
    endloop
  endfacet
  facet normal 0.688409 0.725323 -0
    outer loop
      vertex 0.015214 0.01701 0
      vertex 0.015214 0.01701 0.244654
      vertex 0.017061 0.015257 0.244654
    endloop
  endfacet
  facet normal 0.605641 0.795738 0
    outer loop
      vertex 0.015214 0.01701 0.244654
      vertex 0.015214 0.01701 0
      vertex 0.013188 0.018552 0.244654
    endloop
  endfacet
  facet normal 0.516228 0.856451 0
    outer loop
      vertex 0.013188 0.018552 0.244654
      vertex 0.013188 0.018552 0
      vertex 0.011008 0.019866 0.244654
    endloop
  endfacet
  facet normal -0.68838 -0.72535 0
    outer loop
      vertex 0.016677 0.014894 0.000979
      vertex 0.016677 0.014894 0.244654
      vertex 0.014872 0.016607 0.244654
    endloop
  endfacet
  facet normal -0.60545 -0.795883 0
    outer loop
      vertex 0.012891 0.018114 0.000979
      vertex 0.014872 0.016607 0.244654
      vertex 0.012891 0.018114 0.244654
    endloop
  endfacet
  facet normal -0.516091 -0.856534 0
    outer loop
      vertex 0.012891 0.018114 0.244654
      vertex 0.01076 0.019398 0.244654
      vertex 0.012891 0.018114 0.000979
    endloop
  endfacet
  facet normal -0.319963 -0.94743 -0
    outer loop
      vertex 0.006146 0.02124 0.244654
      vertex 0.006146 0.02124 0.000979
      vertex 0.008503 0.020444 0.244654
    endloop
  endfacet
  facet normal -0.215015 -0.976611 -0
    outer loop
      vertex 0.003716 0.021775 0.244654
      vertex 0.003716 0.021775 0.000979
      vertex 0.006146 0.02124 0.244654
    endloop
  endfacet
  facet normal -0.108181 -0.994131 0
    outer loop
      vertex 0.003716 0.021775 0.244654
      vertex 0.001244 0.022044 0.244654
      vertex 0.003716 0.021775 0.000979
    endloop
  endfacet
  facet normal 0.986909 0.16128 0
    outer loop
      vertex 0.023362 0.001617 0.244654
      vertex 0.023362 0.001617 0
      vertex 0.022951 0.004132 0.244654
    endloop
  endfacet
  facet normal -0.986889 -0.161403 0
    outer loop
      vertex 0.022837 0.00156 0.000979
      vertex 0.022837 0.00156 0.244654
      vertex 0.022435 0.004018 0.244654
    endloop
  endfacet
  facet normal 0.828042 0.560666 0
    outer loop
      vertex 0.020136 0.011206 0.244654
      vertex 0.020136 0.011206 0
      vertex 0.018708 0.013315 0.244654
    endloop
  endfacet
  facet normal 0.762656 0.646804 0
    outer loop
      vertex 0.018708 0.013315 0
      vertex 0.017061 0.015257 0.244654
      vertex 0.018708 0.013315 0.244654
    endloop
  endfacet
  facet normal -0.762563 -0.646914 -0
    outer loop
      vertex 0.016677 0.014894 0.244654
      vertex 0.016677 0.014894 0.000979
      vertex 0.018288 0.012995 0.244654
    endloop
  endfacet
  facet normal 0.420304 0.907383 0
    outer loop
      vertex 0.011008 0.019866 0
      vertex 0.008698 0.020936 0.244654
      vertex 0.011008 0.019866 0.244654
    endloop
  endfacet
  facet normal 0.108447 0.994102 -0
    outer loop
      vertex 0.001272 0.022573 0
      vertex 0.001272 0.022573 0.244654
      vertex 0.003802 0.022297 0.244654
    endloop
  endfacet
  facet normal 0.963641 0.267199 0
    outer loop
      vertex 0.022951 0.004132 0.244654
      vertex 0.022951 0.004132 0
      vertex 0.02227 0.006588 0.244654
    endloop
  endfacet
  facet normal -0.92925 -0.369451 -0
    outer loop
      vertex 0.020849 0.008733 0.244654
      vertex 0.020849 0.008733 0.000979
      vertex 0.021769 0.006419 0.244654
    endloop
  endfacet
  facet normal -0.963641 0.267199 0
    outer loop
      vertex -0.022951 0.004132 0
      vertex -0.022951 0.004132 0.244654
      vertex -0.02227 0.006588 0.244654
    endloop
  endfacet
  facet normal -0.828075 -0.560617 -0
    outer loop
      vertex 0.018288 0.012995 0.244654
      vertex 0.018288 0.012995 0.000979
      vertex 0.019684 0.010933 0.244654
    endloop
  endfacet
  facet normal -0.929125 0.369766 0
    outer loop
      vertex -0.021328 0.008955 0.244654
      vertex -0.021328 0.008955 0
      vertex -0.02227 0.006588 0.244654
    endloop
  endfacet
  facet normal -0.963616 -0.267292 -4.33704e-19
    outer loop
      vertex 0.021769 0.006419 0.000979
      vertex 0.022435 0.004018 0.244654
      vertex 0.021769 0.006419 0.244654
    endloop
  endfacet
  facet normal -0.883739 -0.46798 0
    outer loop
      vertex 0.020849 0.008733 0.244654
      vertex 0.019684 0.010933 0.244654
      vertex 0.020849 0.008733 0.000979
    endloop
  endfacet
  facet normal 0.762563 0.646914 -0
    outer loop
      vertex -0.018288 -0.014849 0.000979
      vertex -0.018288 -0.014849 0.244654
      vertex -0.016677 -0.016748 0.244654
    endloop
  endfacet
  facet normal -0.516228 -0.856451 0
    outer loop
      vertex -0.011008 -0.02172 0
      vertex -0.011008 -0.02172 0.244654
      vertex -0.013188 -0.020406 0.244654
    endloop
  endfacet
  facet normal -0.986909 0.16128 0
    outer loop
      vertex -0.023362 0.001617 0
      vertex -0.023362 0.001617 0.244654
      vertex -0.022951 0.004132 0.244654
    endloop
  endfacet
  facet normal 0 -1 0
    outer loop
      vertex -0.001272 -0.024427 0
      vertex 0.001272 -0.024427 0.244654
      vertex -0.001272 -0.024427 0.244654
    endloop
  endfacet
  facet normal -0.998532 0.0541658 -1.08426e-19
    outer loop
      vertex -0.023362 0.001617 0
      vertex -0.0235 -0.000927 0.244654
      vertex -0.023362 0.001617 0.244654
    endloop
  endfacet
  facet normal -0.420304 0.907383 0
    outer loop
      vertex -0.008698 0.020936 0
      vertex -0.011008 0.019866 0.244654
      vertex -0.008698 0.020936 0.244654
    endloop
  endfacet
  facet normal 0.762563 -0.646914 -8.67407e-19
    outer loop
      vertex -0.016677 0.014894 0.244654
      vertex -0.018288 0.012995 0.244654
      vertex -0.016677 0.014894 0.000979
    endloop
  endfacet
  facet normal 0.883739 -0.46798 0
    outer loop
      vertex -0.019684 0.010933 0.244654
      vertex -0.020849 0.008733 0.244654
      vertex -0.019684 0.010933 0.000979
    endloop
  endfacet
  facet normal -0.108447 0.994102 0
    outer loop
      vertex -0.001272 0.022573 0.244654
      vertex -0.001272 0.022573 0
      vertex -0.003802 0.022297 0.244654
    endloop
  endfacet
  facet normal -0.215349 0.976537 0
    outer loop
      vertex -0.006287 0.021749 0.244654
      vertex -0.003802 0.022297 0.244654
      vertex -0.006287 0.021749 0
    endloop
  endfacet
  facet normal 0.108181 -0.994131 0
    outer loop
      vertex -0.001244 0.022044 0.244654
      vertex -0.003716 0.021775 0.244654
      vertex -0.001244 0.022044 0.000979
    endloop
  endfacet
  facet normal 0.215349 0.976537 0
    outer loop
      vertex 0.006287 0.021749 0
      vertex 0.003802 0.022297 0.244654
      vertex 0.006287 0.021749 0.244654
    endloop
  endfacet
  facet normal -0.688409 0.725323 0
    outer loop
      vertex -0.017061 0.015257 0
      vertex -0.017061 0.015257 0.244654
      vertex -0.015214 0.01701 0.244654
    endloop
  endfacet
  facet normal 0.516091 -0.856534 0
    outer loop
      vertex -0.01076 0.019398 0.244654
      vertex -0.012891 0.018114 0.244654
      vertex -0.01076 0.019398 0.000979
    endloop
  endfacet
  facet normal 0.60545 -0.795883 0
    outer loop
      vertex -0.014872 0.016607 0.244654
      vertex -0.014872 0.016607 0.000979
      vertex -0.012891 0.018114 0.244654
    endloop
  endfacet
  facet normal 0.319527 0.947577 -0
    outer loop
      vertex 0.006287 0.021749 0
      vertex 0.006287 0.021749 0.244654
      vertex 0.008698 0.020936 0.244654
    endloop
  endfacet
  facet normal -0.420485 -0.907299 0
    outer loop
      vertex 0.01076 0.019398 0.000979
      vertex 0.01076 0.019398 0.244654
      vertex 0.008503 0.020444 0.244654
    endloop
  endfacet
  facet normal 0.998532 0.0541658 -1.08426e-19
    outer loop
      vertex 0.023362 0.001617 0.244654
      vertex 0.0235 -0.000927 0.244654
      vertex 0.023362 0.001617 0
    endloop
  endfacet
  facet normal -0.688409 -0.725323 0
    outer loop
      vertex -0.015214 -0.018864 0.244654
      vertex -0.017061 -0.017111 0.244654
      vertex -0.015214 -0.018864 0
    endloop
  endfacet
  facet normal -0.605641 -0.795738 0
    outer loop
      vertex -0.015214 -0.018864 0
      vertex -0.013188 -0.020406 0.244654
      vertex -0.015214 -0.018864 0.244654
    endloop
  endfacet
  facet normal 0.929125 0.369766 0
    outer loop
      vertex 0.02227 0.006588 0.244654
      vertex 0.02227 0.006588 0
      vertex 0.021328 0.008955 0.244654
    endloop
  endfacet
  facet normal 0.88374 0.467978 0
    outer loop
      vertex 0.020136 0.011206 0.244654
      vertex 0.021328 0.008955 0.244654
      vertex 0.020136 0.011206 0
    endloop
  endfacet
  facet normal 0.516091 0.856534 0
    outer loop
      vertex -0.01076 -0.021252 0.244654
      vertex -0.01076 -0.021252 0.000979
      vertex -0.012891 -0.019968 0.244654
    endloop
  endfacet
  facet normal 0.420485 0.907299 -0
    outer loop
      vertex -0.008503 -0.022298 0.244654
      vertex -0.01076 -0.021252 0.000979
      vertex -0.01076 -0.021252 0.244654
    endloop
  endfacet
  facet normal -0.420304 -0.907383 0
    outer loop
      vertex -0.008698 -0.02279 0.244654
      vertex -0.011008 -0.02172 0.244654
      vertex -0.008698 -0.02279 0
    endloop
  endfacet
  facet normal -0.319527 -0.947577 -4.33704e-19
    outer loop
      vertex -0.006287 -0.023603 0.244654
      vertex -0.008698 -0.02279 0.244654
      vertex -0.006287 -0.023603 0
    endloop
  endfacet
  facet normal -0.215348 -0.976537 -0
    outer loop
      vertex -0.006287 -0.023603 0.244654
      vertex -0.006287 -0.023603 0
      vertex -0.003802 -0.024151 0.244654
    endloop
  endfacet
  facet normal 0.215015 0.976611 0
    outer loop
      vertex -0.003716 -0.023629 0.244654
      vertex -0.003716 -0.023629 0.000979
      vertex -0.006146 -0.023094 0.244654
    endloop
  endfacet
  facet normal 0.68838 -0.72535 0
    outer loop
      vertex -0.016677 0.014894 0.244654
      vertex -0.016677 0.014894 0.000979
      vertex -0.014872 0.016607 0.244654
    endloop
  endfacet
  facet normal 0.68838 0.72535 8.67407e-19
    outer loop
      vertex -0.014872 -0.018461 0.000979
      vertex -0.016677 -0.016748 0.244654
      vertex -0.014872 -0.018461 0.244654
    endloop
  endfacet
  facet normal 0.60545 0.795883 0
    outer loop
      vertex -0.012891 -0.019968 0.244654
      vertex -0.012891 -0.019968 0.000979
      vertex -0.014872 -0.018461 0.244654
    endloop
  endfacet
  facet normal 0.319963 0.94743 0
    outer loop
      vertex -0.006146 -0.023094 0.000979
      vertex -0.008503 -0.022298 0.244654
      vertex -0.006146 -0.023094 0.244654
    endloop
  endfacet
  facet normal 0.108181 0.994131 0
    outer loop
      vertex -0.003716 -0.023629 0.244654
      vertex -0.001244 -0.023898 0.244654
      vertex -0.003716 -0.023629 0.000979
    endloop
  endfacet
  facet normal -0.929125 -0.369766 0
    outer loop
      vertex -0.021328 -0.010809 0
      vertex -0.021328 -0.010809 0.244654
      vertex -0.02227 -0.008442 0.244654
    endloop
  endfacet
  facet normal -0.88374 -0.467978 -8.67409e-19
    outer loop
      vertex -0.021328 -0.010809 0
      vertex -0.020136 -0.01306 0.244654
      vertex -0.021328 -0.010809 0.244654
    endloop
  endfacet
  facet normal 0.963616 -0.267292 4.33704e-19
    outer loop
      vertex -0.022435 0.004018 0.000979
      vertex -0.021769 0.006419 0.244654
      vertex -0.022435 0.004018 0.244654
    endloop
  endfacet
  facet normal 0.986889 -0.161403 0
    outer loop
      vertex -0.022837 0.00156 0.244654
      vertex -0.022837 0.00156 0.000979
      vertex -0.022435 0.004018 0.244654
    endloop
  endfacet
  facet normal 0 -1 0
    outer loop
      vertex -0.001244 0.022044 0.244654
      vertex -0.001244 0.022044 0.000979
      vertex 0.001244 0.022044 0.244654
    endloop
  endfacet
  facet normal -0.986909 -0.16128 -2.16852e-19
    outer loop
      vertex -0.023362 -0.003471 0
      vertex -0.022951 -0.005986 0.244654
      vertex -0.023362 -0.003471 0.244654
    endloop
  endfacet
  facet normal 0.963616 0.267292 4.33704e-19
    outer loop
      vertex -0.021769 -0.008273 0.000979
      vertex -0.022435 -0.005872 0.244654
      vertex -0.021769 -0.008273 0.244654
    endloop
  endfacet
  facet normal 0.92925 0.369451 0
    outer loop
      vertex -0.021769 -0.008273 0.244654
      vertex -0.020849 -0.010587 0.244654
      vertex -0.021769 -0.008273 0.000979
    endloop
  endfacet
  facet normal 0.108448 -0.994102 -2.16852e-19
    outer loop
      vertex 0.003802 -0.024151 0.244654
      vertex 0.001272 -0.024427 0.244654
      vertex 0.003802 -0.024151 0
    endloop
  endfacet
  facet normal 0.215348 -0.976537 0
    outer loop
      vertex 0.003802 -0.024151 0
      vertex 0.006287 -0.023603 0.244654
      vertex 0.003802 -0.024151 0.244654
    endloop
  endfacet
  facet normal -0.60545 0.795883 0
    outer loop
      vertex 0.014872 -0.018461 0.244654
      vertex 0.014872 -0.018461 0.000979
      vertex 0.012891 -0.019968 0.244654
    endloop
  endfacet
  facet normal -0.68838 0.72535 0
    outer loop
      vertex 0.014872 -0.018461 0.000979
      vertex 0.014872 -0.018461 0.244654
      vertex 0.016677 -0.016748 0.244654
    endloop
  endfacet
  facet normal -0.828075 0.560617 0
    outer loop
      vertex 0.019684 -0.012787 0.244654
      vertex 0.019684 -0.012787 0.000979
      vertex 0.018288 -0.014849 0.244654
    endloop
  endfacet
  facet normal -0.883739 0.46798 0
    outer loop
      vertex 0.020849 -0.010587 0.244654
      vertex 0.019684 -0.012787 0.000979
      vertex 0.019684 -0.012787 0.244654
    endloop
  endfacet
  facet normal -0.92925 0.369451 0
    outer loop
      vertex 0.021769 -0.008273 0.244654
      vertex 0.021769 -0.008273 0.000979
      vertex 0.020849 -0.010587 0.244654
    endloop
  endfacet
  facet normal -0.963616 0.267292 0
    outer loop
      vertex 0.021769 -0.008273 0.000979
      vertex 0.021769 -0.008273 0.244654
      vertex 0.022435 -0.005872 0.244654
    endloop
  endfacet
  facet normal -0.828042 -0.560666 -0
    outer loop
      vertex -0.020136 -0.01306 0.244654
      vertex -0.020136 -0.01306 0
      vertex -0.018708 -0.015169 0.244654
    endloop
  endfacet
  facet normal -0.762656 -0.646804 -8.67409e-19
    outer loop
      vertex -0.017061 -0.017111 0.244654
      vertex -0.018708 -0.015169 0.244654
      vertex -0.017061 -0.017111 0
    endloop
  endfacet
  facet normal 0.883739 0.46798 0
    outer loop
      vertex -0.019684 -0.012787 0.000979
      vertex -0.020849 -0.010587 0.244654
      vertex -0.019684 -0.012787 0.244654
    endloop
  endfacet
  facet normal 0.828075 0.560617 0
    outer loop
      vertex -0.019684 -0.012787 0.244654
      vertex -0.018288 -0.014849 0.244654
      vertex -0.019684 -0.012787 0.000979
    endloop
  endfacet
  facet normal -0.108448 -0.994102 -0
    outer loop
      vertex -0.001272 -0.024427 0.244654
      vertex -0.003802 -0.024151 0.244654
      vertex -0.003802 -0.024151 0
    endloop
  endfacet
  facet normal 0.99853 0.0542026 -0
    outer loop
      vertex -0.022972 -0.000927 0.000979
      vertex -0.022972 -0.000927 0.244654
      vertex -0.022837 -0.003414 0.244654
    endloop
  endfacet
  facet normal 0.986889 0.161403 -0
    outer loop
      vertex -0.022837 -0.003414 0.000979
      vertex -0.022837 -0.003414 0.244654
      vertex -0.022435 -0.005872 0.244654
    endloop
  endfacet
  facet normal -0 1 0
    outer loop
      vertex -0.001244 -0.023898 0.244654
      vertex 0.001244 -0.023898 0.244654
      vertex 0.001244 -0.023898 0.000979
    endloop
  endfacet
  facet normal 0.99853 -0.0542026 0
    outer loop
      vertex -0.022972 -0.000927 0.244654
      vertex -0.022972 -0.000927 0.000979
      vertex -0.022837 0.00156 0.244654
    endloop
  endfacet
  facet normal -0.963642 -0.267199 0
    outer loop
      vertex -0.02227 -0.008442 0.244654
      vertex -0.022951 -0.005986 0.244654
      vertex -0.02227 -0.008442 0
    endloop
  endfacet
  facet normal -0.998532 -0.0541658 0
    outer loop
      vertex -0.023362 -0.003471 0
      vertex -0.023362 -0.003471 0.244654
      vertex -0.0235 -0.000927 0.244654
    endloop
  endfacet
  facet normal -0.99853 -0.0542026 0
    outer loop
      vertex 0.022972 -0.000927 0.244654
      vertex 0.022837 0.00156 0.244654
      vertex 0.022972 -0.000927 0.000979
    endloop
  endfacet
  facet normal 0 1 -0
    outer loop
      vertex 0.001272 0.022573 0
      vertex -0.001272 0.022573 0.244654
      vertex 0.001272 0.022573 0.244654
    endloop
  endfacet
  facet normal 0.319527 -0.947577 4.33704e-19
    outer loop
      vertex 0.008698 -0.02279 0.244654
      vertex 0.006287 -0.023603 0.244654
      vertex 0.008698 -0.02279 0
    endloop
  endfacet
  facet normal -0.99853 0.0542026 0
    outer loop
      vertex 0.022837 -0.003414 0.000979
      vertex 0.022837 -0.003414 0.244654
      vertex 0.022972 -0.000927 0.244654
    endloop
  endfacet
  facet normal -0.986889 0.161403 -2.16852e-19
    outer loop
      vertex 0.022435 -0.005872 0.244654
      vertex 0.022837 -0.003414 0.244654
      vertex 0.022435 -0.005872 0.000979
    endloop
  endfacet
  facet normal 0.963642 -0.267199 0
    outer loop
      vertex 0.022951 -0.005986 0
      vertex 0.022951 -0.005986 0.244654
      vertex 0.02227 -0.008442 0.244654
    endloop
  endfacet
  facet normal -0.215015 0.976611 0
    outer loop
      vertex 0.003716 -0.023629 0.244654
      vertex 0.006146 -0.023094 0.244654
      vertex 0.003716 -0.023629 0.000979
    endloop
  endfacet
  facet normal -0.319963 0.94743 0
    outer loop
      vertex 0.006146 -0.023094 0.000979
      vertex 0.006146 -0.023094 0.244654
      vertex 0.008503 -0.022298 0.244654
    endloop
  endfacet
  facet normal 0.420304 -0.907383 0
    outer loop
      vertex 0.008698 -0.02279 0.244654
      vertex 0.008698 -0.02279 0
      vertex 0.011008 -0.02172 0.244654
    endloop
  endfacet
  facet normal 0.516228 -0.856451 0
    outer loop
      vertex 0.013188 -0.020406 0
      vertex 0.013188 -0.020406 0.244654
      vertex 0.011008 -0.02172 0.244654
    endloop
  endfacet
  facet normal -0.420485 0.907299 -4.33703e-19
    outer loop
      vertex 0.01076 -0.021252 0.000979
      vertex 0.008503 -0.022298 0.244654
      vertex 0.01076 -0.021252 0.244654
    endloop
  endfacet
  facet normal -0.516091 0.856534 0
    outer loop
      vertex 0.012891 -0.019968 0.244654
      vertex 0.012891 -0.019968 0.000979
      vertex 0.01076 -0.021252 0.244654
    endloop
  endfacet
  facet normal 0.688409 -0.725323 0
    outer loop
      vertex 0.015214 -0.018864 0
      vertex 0.017061 -0.017111 0.244654
      vertex 0.015214 -0.018864 0.244654
    endloop
  endfacet
  facet normal -0.108181 0.994131 0
    outer loop
      vertex 0.001244 -0.023898 0.000979
      vertex 0.001244 -0.023898 0.244654
      vertex 0.003716 -0.023629 0.244654
    endloop
  endfacet
  facet normal 0.605641 -0.795738 0
    outer loop
      vertex 0.015214 -0.018864 0.244654
      vertex 0.013188 -0.020406 0.244654
      vertex 0.015214 -0.018864 0
    endloop
  endfacet
  facet normal 0 -0 1
    outer loop
      vertex 0.018288 0.012995 0.244654
      vertex 0.018708 0.013315 0.244654
      vertex 0.016677 0.014894 0.244654
    endloop
  endfacet
  facet normal 0 -0 1
    outer loop
      vertex 0.019684 0.010933 0.244654
      vertex 0.020136 0.011206 0.244654
      vertex 0.018288 0.012995 0.244654
    endloop
  endfacet
  facet normal 0 0 1
    outer loop
      vertex 0.015214 0.01701 0.244654
      vertex 0.014872 0.016607 0.244654
      vertex 0.017061 0.015257 0.244654
    endloop
  endfacet
  facet normal 0 -0 1
    outer loop
      vertex 0.020849 0.008733 0.244654
      vertex 0.021328 0.008955 0.244654
      vertex 0.019684 0.010933 0.244654
    endloop
  endfacet
  facet normal 0 0 1
    outer loop
      vertex 0.018708 0.013315 0.244654
      vertex 0.018288 0.012995 0.244654
      vertex 0.020136 0.011206 0.244654
    endloop
  endfacet
  facet normal 0 0 1
    outer loop
      vertex 0.021328 0.008955 0.244654
      vertex 0.020136 0.011206 0.244654
      vertex 0.019684 0.010933 0.244654
    endloop
  endfacet
  facet normal 0 -0 1
    outer loop
      vertex 0.022435 0.004018 0.244654
      vertex 0.022951 0.004132 0.244654
      vertex 0.021769 0.006419 0.244654
    endloop
  endfacet
  facet normal -0 0 1
    outer loop
      vertex 0.020849 0.008733 0.244654
      vertex 0.021769 0.006419 0.244654
      vertex 0.02227 0.006588 0.244654
    endloop
  endfacet
  facet normal -0 -0 1
    outer loop
      vertex 0.020849 0.008733 0.244654
      vertex 0.02227 0.006588 0.244654
      vertex 0.021328 0.008955 0.244654
    endloop
  endfacet
  facet normal 0 0 1
    outer loop
      vertex 0.02227 0.006588 0.244654
      vertex 0.021769 0.006419 0.244654
      vertex 0.022951 0.004132 0.244654
    endloop
  endfacet
  facet normal 0 -0 1
    outer loop
      vertex 0.022837 0.00156 0.244654
      vertex 0.023362 0.001617 0.244654
      vertex 0.022435 0.004018 0.244654
    endloop
  endfacet
  facet normal 0 0 1
    outer loop
      vertex 0.022951 0.004132 0.244654
      vertex 0.022435 0.004018 0.244654
      vertex 0.023362 0.001617 0.244654
    endloop
  endfacet
  facet normal 0 -0 1
    outer loop
      vertex 0.003716 0.021775 0.244654
      vertex 0.003802 0.022297 0.244654
      vertex 0.001244 0.022044 0.244654
    endloop
  endfacet
  facet normal 0 0 1
    outer loop
      vertex -0.001244 0.022044 0.244654
      vertex 0.001244 0.022044 0.244654
      vertex 0.001272 0.022573 0.244654
    endloop
  endfacet
  facet normal 0 0 1
    outer loop
      vertex 0.006146 0.02124 0.244654
      vertex 0.003802 0.022297 0.244654
      vertex 0.003716 0.021775 0.244654
    endloop
  endfacet
  facet normal 0 0 1
    outer loop
      vertex 0.003802 0.022297 0.244654
      vertex 0.001272 0.022573 0.244654
      vertex 0.001244 0.022044 0.244654
    endloop
  endfacet
  facet normal 0 -0 1
    outer loop
      vertex 0.008503 0.020444 0.244654
      vertex 0.008698 0.020936 0.244654
      vertex 0.006146 0.02124 0.244654
    endloop
  endfacet
  facet normal -0 0 1
    outer loop
      vertex 0.003802 0.022297 0.244654
      vertex 0.006146 0.02124 0.244654
      vertex 0.006287 0.021749 0.244654
    endloop
  endfacet
  facet normal 0 -0 1
    outer loop
      vertex 0.01076 0.019398 0.244654
      vertex 0.011008 0.019866 0.244654
      vertex 0.008503 0.020444 0.244654
    endloop
  endfacet
  facet normal 0 0 1
    outer loop
      vertex 0.006287 0.021749 0.244654
      vertex 0.006146 0.02124 0.244654
      vertex 0.008698 0.020936 0.244654
    endloop
  endfacet
  facet normal 0 -0 1
    outer loop
      vertex 0.012891 0.018114 0.244654
      vertex 0.013188 0.018552 0.244654
      vertex 0.01076 0.019398 0.244654
    endloop
  endfacet
  facet normal 0 0 1
    outer loop
      vertex 0.008698 0.020936 0.244654
      vertex 0.008503 0.020444 0.244654
      vertex 0.011008 0.019866 0.244654
    endloop
  endfacet
  facet normal 0 -0 1
    outer loop
      vertex 0.014872 0.016607 0.244654
      vertex 0.015214 0.01701 0.244654
      vertex 0.012891 0.018114 0.244654
    endloop
  endfacet
  facet normal 0 0 1
    outer loop
      vertex 0.011008 0.019866 0.244654
      vertex 0.01076 0.019398 0.244654
      vertex 0.013188 0.018552 0.244654
    endloop
  endfacet
  facet normal 0 0 1
    outer loop
      vertex 0.013188 0.018552 0.244654
      vertex 0.012891 0.018114 0.244654
      vertex 0.015214 0.01701 0.244654
    endloop
  endfacet
  facet normal 0 -0 1
    outer loop
      vertex 0.016677 0.014894 0.244654
      vertex 0.017061 0.015257 0.244654
      vertex 0.014872 0.016607 0.244654
    endloop
  endfacet
  facet normal 0 0 1
    outer loop
      vertex 0.018708 0.013315 0.244654
      vertex 0.017061 0.015257 0.244654
      vertex 0.016677 0.014894 0.244654
    endloop
  endfacet
  facet normal -0 0 1
    outer loop
      vertex -0.013188 0.018552 0.244654
      vertex -0.015214 0.01701 0.244654
      vertex -0.012891 0.018114 0.244654
    endloop
  endfacet
  facet normal 0 -0 1
    outer loop
      vertex -0.014872 0.016607 0.244654
      vertex -0.012891 0.018114 0.244654
      vertex -0.015214 0.01701 0.244654
    endloop
  endfacet
  facet normal 0 0 1
    outer loop
      vertex -0.01076 0.019398 0.244654
      vertex -0.013188 0.018552 0.244654
      vertex -0.012891 0.018114 0.244654
    endloop
  endfacet
  facet normal 0 0 1
    outer loop
      vertex -0.008503 0.020444 0.244654
      vertex -0.011008 0.019866 0.244654
      vertex -0.01076 0.019398 0.244654
    endloop
  endfacet
  facet normal 0 -0 1
    outer loop
      vertex -0.013188 0.018552 0.244654
      vertex -0.01076 0.019398 0.244654
      vertex -0.011008 0.019866 0.244654
    endloop
  endfacet
  facet normal 0 0 1
    outer loop
      vertex -0.006146 0.02124 0.244654
      vertex -0.008698 0.020936 0.244654
      vertex -0.008503 0.020444 0.244654
    endloop
  endfacet
  facet normal 0 -0 1
    outer loop
      vertex -0.011008 0.019866 0.244654
      vertex -0.008503 0.020444 0.244654
      vertex -0.008698 0.020936 0.244654
    endloop
  endfacet
  facet normal 0 0 1
    outer loop
      vertex -0.003716 0.021775 0.244654
      vertex -0.003802 0.022297 0.244654
      vertex -0.006146 0.02124 0.244654
    endloop
  endfacet
  facet normal 0 -0 1
    outer loop
      vertex -0.008698 0.020936 0.244654
      vertex -0.006146 0.02124 0.244654
      vertex -0.006287 0.021749 0.244654
    endloop
  endfacet
  facet normal 0 0 1
    outer loop
      vertex -0.001272 0.022573 0.244654
      vertex -0.003802 0.022297 0.244654
      vertex -0.001244 0.022044 0.244654
    endloop
  endfacet
  facet normal -0 0 1
    outer loop
      vertex -0.006287 0.021749 0.244654
      vertex -0.006146 0.02124 0.244654
      vertex -0.003802 0.022297 0.244654
    endloop
  endfacet
  facet normal 0 -0 1
    outer loop
      vertex -0.003716 0.021775 0.244654
      vertex -0.001244 0.022044 0.244654
      vertex -0.003802 0.022297 0.244654
    endloop
  endfacet
  facet normal -0 0 1
    outer loop
      vertex -0.001272 0.022573 0.244654
      vertex -0.001244 0.022044 0.244654
      vertex 0.001272 0.022573 0.244654
    endloop
  endfacet
  facet normal 0.762656 -0.646804 0
    outer loop
      vertex 0.017061 -0.017111 0.244654
      vertex 0.017061 -0.017111 0
      vertex 0.018708 -0.015169 0.244654
    endloop
  endfacet
  facet normal -0.762563 0.646914 0
    outer loop
      vertex 0.018288 -0.014849 0.244654
      vertex 0.018288 -0.014849 0.000979
      vertex 0.016677 -0.016748 0.244654
    endloop
  endfacet
  facet normal 0.828042 -0.560666 8.67409e-19
    outer loop
      vertex 0.020136 -0.01306 0.244654
      vertex 0.018708 -0.015169 0.244654
      vertex 0.020136 -0.01306 0
    endloop
  endfacet
  facet normal 0.88374 -0.467978 0
    outer loop
      vertex 0.020136 -0.01306 0.244654
      vertex 0.020136 -0.01306 0
      vertex 0.021328 -0.010809 0.244654
    endloop
  endfacet
  facet normal -0 0 1
    outer loop
      vertex -0.022951 0.004132 0.244654
      vertex -0.023362 0.001617 0.244654
      vertex -0.022435 0.004018 0.244654
    endloop
  endfacet
  facet normal 0 -0 1
    outer loop
      vertex -0.0235 -0.000927 0.244654
      vertex -0.022972 -0.000927 0.244654
      vertex -0.023362 0.001617 0.244654
    endloop
  endfacet
  facet normal 0 -0 1
    outer loop
      vertex -0.022837 0.00156 0.244654
      vertex -0.022435 0.004018 0.244654
      vertex -0.023362 0.001617 0.244654
    endloop
  endfacet
  facet normal 0 0 1
    outer loop
      vertex -0.021769 0.006419 0.244654
      vertex -0.022951 0.004132 0.244654
      vertex -0.022435 0.004018 0.244654
    endloop
  endfacet
  facet normal 0 0 1
    outer loop
      vertex -0.020849 0.008733 0.244654
      vertex -0.02227 0.006588 0.244654
      vertex -0.021769 0.006419 0.244654
    endloop
  endfacet
  facet normal 0 -0 1
    outer loop
      vertex -0.022951 0.004132 0.244654
      vertex -0.021769 0.006419 0.244654
      vertex -0.02227 0.006588 0.244654
    endloop
  endfacet
  facet normal 0 0 1
    outer loop
      vertex -0.019684 0.010933 0.244654
      vertex -0.021328 0.008955 0.244654
      vertex -0.020849 0.008733 0.244654
    endloop
  endfacet
  facet normal 0 -0 1
    outer loop
      vertex -0.02227 0.006588 0.244654
      vertex -0.020849 0.008733 0.244654
      vertex -0.021328 0.008955 0.244654
    endloop
  endfacet
  facet normal -0 0 1
    outer loop
      vertex -0.018708 0.013315 0.244654
      vertex -0.020136 0.011206 0.244654
      vertex -0.018288 0.012995 0.244654
    endloop
  endfacet
  facet normal 0 -0 1
    outer loop
      vertex -0.021328 0.008955 0.244654
      vertex -0.019684 0.010933 0.244654
      vertex -0.020136 0.011206 0.244654
    endloop
  endfacet
  facet normal 0 -0 1
    outer loop
      vertex -0.019684 0.010933 0.244654
      vertex -0.018288 0.012995 0.244654
      vertex -0.020136 0.011206 0.244654
    endloop
  endfacet
  facet normal 0 -0 1
    outer loop
      vertex -0.016677 0.014894 0.244654
      vertex -0.014872 0.016607 0.244654
      vertex -0.017061 0.015257 0.244654
    endloop
  endfacet
  facet normal 0 -0 1
    outer loop
      vertex -0.018708 0.013315 0.244654
      vertex -0.016677 0.014894 0.244654
      vertex -0.017061 0.015257 0.244654
    endloop
  endfacet
  facet normal 0 -0 1
    outer loop
      vertex -0.018288 0.012995 0.244654
      vertex -0.016677 0.014894 0.244654
      vertex -0.018708 0.013315 0.244654
    endloop
  endfacet
  facet normal -0 0 1
    outer loop
      vertex -0.015214 0.01701 0.244654
      vertex -0.017061 0.015257 0.244654
      vertex -0.014872 0.016607 0.244654
    endloop
  endfacet
  facet normal 0 -0 1
    outer loop
      vertex 0.021769 -0.008273 0.244654
      vertex 0.022951 -0.005986 0.244654
      vertex 0.022435 -0.005872 0.244654
    endloop
  endfacet
  facet normal 0 -0 1
    outer loop
      vertex 0.022951 -0.005986 0.244654
      vertex 0.023362 -0.003471 0.244654
      vertex 0.022435 -0.005872 0.244654
    endloop
  endfacet
  facet normal 0 -0 1
    outer loop
      vertex 0.020849 -0.010587 0.244654
      vertex 0.02227 -0.008442 0.244654
      vertex 0.021769 -0.008273 0.244654
    endloop
  endfacet
  facet normal 0 0 1
    outer loop
      vertex 0.022951 -0.005986 0.244654
      vertex 0.021769 -0.008273 0.244654
      vertex 0.02227 -0.008442 0.244654
    endloop
  endfacet
  facet normal 0 -0 1
    outer loop
      vertex 0.019684 -0.012787 0.244654
      vertex 0.021328 -0.010809 0.244654
      vertex 0.020849 -0.010587 0.244654
    endloop
  endfacet
  facet normal 0 0 1
    outer loop
      vertex 0.02227 -0.008442 0.244654
      vertex 0.020849 -0.010587 0.244654
      vertex 0.021328 -0.010809 0.244654
    endloop
  endfacet
  facet normal 0 -0 1
    outer loop
      vertex 0.018288 -0.014849 0.244654
      vertex 0.020136 -0.01306 0.244654
      vertex 0.019684 -0.012787 0.244654
    endloop
  endfacet
  facet normal 0 0 1
    outer loop
      vertex 0.020136 -0.01306 0.244654
      vertex 0.018288 -0.014849 0.244654
      vertex 0.018708 -0.015169 0.244654
    endloop
  endfacet
  facet normal 0 0 1
    outer loop
      vertex 0.021328 -0.010809 0.244654
      vertex 0.019684 -0.012787 0.244654
      vertex 0.020136 -0.01306 0.244654
    endloop
  endfacet
  facet normal -0 0 1
    outer loop
      vertex 0.018288 -0.014849 0.244654
      vertex 0.016677 -0.016748 0.244654
      vertex 0.018708 -0.015169 0.244654
    endloop
  endfacet
  facet normal -0 0 1
    outer loop
      vertex 0.023362 0.001617 0.244654
      vertex 0.022972 -0.000927 0.244654
      vertex 0.0235 -0.000927 0.244654
    endloop
  endfacet
  facet normal 0 -0 1
    outer loop
      vertex 0.023362 -0.003471 0.244654
      vertex 0.0235 -0.000927 0.244654
      vertex 0.022972 -0.000927 0.244654
    endloop
  endfacet
  facet normal -0 0 1
    outer loop
      vertex 0.022837 0.00156 0.244654
      vertex 0.022972 -0.000927 0.244654
      vertex 0.023362 0.001617 0.244654
    endloop
  endfacet
  facet normal 0 0 1
    outer loop
      vertex 0.022972 -0.000927 0.244654
      vertex 0.022837 -0.003414 0.244654
      vertex 0.023362 -0.003471 0.244654
    endloop
  endfacet
  facet normal -0 0 1
    outer loop
      vertex 0.022837 -0.003414 0.244654
      vertex 0.022435 -0.005872 0.244654
      vertex 0.023362 -0.003471 0.244654
    endloop
  endfacet
  facet normal 0 -0 1
    outer loop
      vertex 0.017061 -0.017111 0.244654
      vertex 0.018708 -0.015169 0.244654
      vertex 0.016677 -0.016748 0.244654
    endloop
  endfacet
  facet normal 0 -0 1
    outer loop
      vertex 0.015214 -0.018864 0.244654
      vertex 0.017061 -0.017111 0.244654
      vertex 0.014872 -0.018461 0.244654
    endloop
  endfacet
  facet normal 0.929125 -0.369766 0
    outer loop
      vertex 0.021328 -0.010809 0
      vertex 0.02227 -0.008442 0.244654
      vertex 0.021328 -0.010809 0.244654
    endloop
  endfacet
  facet normal 0 -0 1
    outer loop
      vertex 0.013188 -0.020406 0.244654
      vertex 0.015214 -0.018864 0.244654
      vertex 0.012891 -0.019968 0.244654
    endloop
  endfacet
  facet normal -0 0 1
    outer loop
      vertex 0.016677 -0.016748 0.244654
      vertex 0.014872 -0.018461 0.244654
      vertex 0.017061 -0.017111 0.244654
    endloop
  endfacet
  facet normal -0 0 1
    outer loop
      vertex 0.014872 -0.018461 0.244654
      vertex 0.012891 -0.019968 0.244654
      vertex 0.015214 -0.018864 0.244654
    endloop
  endfacet
  facet normal 0 -0 1
    outer loop
      vertex 0.01076 -0.021252 0.244654
      vertex 0.013188 -0.020406 0.244654
      vertex 0.012891 -0.019968 0.244654
    endloop
  endfacet
  facet normal 0 -0 1
    outer loop
      vertex 0.008698 -0.02279 0.244654
      vertex 0.011008 -0.02172 0.244654
      vertex 0.008503 -0.022298 0.244654
    endloop
  endfacet
  facet normal 0 0 1
    outer loop
      vertex 0.013188 -0.020406 0.244654
      vertex 0.01076 -0.021252 0.244654
      vertex 0.011008 -0.02172 0.244654
    endloop
  endfacet
  facet normal -0 0 1
    outer loop
      vertex 0.01076 -0.021252 0.244654
      vertex 0.008503 -0.022298 0.244654
      vertex 0.011008 -0.02172 0.244654
    endloop
  endfacet
  facet normal 0 -0 1
    outer loop
      vertex 0.006287 -0.023603 0.244654
      vertex 0.008698 -0.02279 0.244654
      vertex 0.006146 -0.023094 0.244654
    endloop
  endfacet
  facet normal -0 0 1
    outer loop
      vertex 0.008503 -0.022298 0.244654
      vertex 0.006146 -0.023094 0.244654
      vertex 0.008698 -0.02279 0.244654
    endloop
  endfacet
  facet normal -0 0 1
    outer loop
      vertex 0.003716 -0.023629 0.244654
      vertex 0.003802 -0.024151 0.244654
      vertex 0.006146 -0.023094 0.244654
    endloop
  endfacet
  facet normal 0.998532 -0.0541658 1.08426e-19
    outer loop
      vertex 0.0235 -0.000927 0.244654
      vertex 0.023362 -0.003471 0.244654
      vertex 0.0235 -0.000927 0
    endloop
  endfacet
  facet normal 0 -0 1
    outer loop
      vertex 0.001272 -0.024427 0.244654
      vertex 0.003802 -0.024151 0.244654
      vertex 0.001244 -0.023898 0.244654
    endloop
  endfacet
  facet normal 0 0 1
    outer loop
      vertex 0.006287 -0.023603 0.244654
      vertex 0.006146 -0.023094 0.244654
      vertex 0.003802 -0.024151 0.244654
    endloop
  endfacet
  facet normal 0 0 1
    outer loop
      vertex 0.003716 -0.023629 0.244654
      vertex 0.001244 -0.023898 0.244654
      vertex 0.003802 -0.024151 0.244654
    endloop
  endfacet
  facet normal -0 -0 1
    outer loop
      vertex -0.001244 -0.023898 0.244654
      vertex 0.001272 -0.024427 0.244654
      vertex 0.001244 -0.023898 0.244654
    endloop
  endfacet
  facet normal 0.986909 -0.16128 0
    outer loop
      vertex 0.022951 -0.005986 0.244654
      vertex 0.022951 -0.005986 0
      vertex 0.023362 -0.003471 0.244654
    endloop
  endfacet
  facet normal 0 0 1
    outer loop
      vertex -0.019684 -0.012787 0.244654
      vertex -0.020136 -0.01306 0.244654
      vertex -0.018288 -0.014849 0.244654
    endloop
  endfacet
  facet normal 0 -0 1
    outer loop
      vertex -0.017061 -0.017111 0.244654
      vertex -0.016677 -0.016748 0.244654
      vertex -0.018708 -0.015169 0.244654
    endloop
  endfacet
  facet normal 0 0 1
    outer loop
      vertex -0.018288 -0.014849 0.244654
      vertex -0.018708 -0.015169 0.244654
      vertex -0.016677 -0.016748 0.244654
    endloop
  endfacet
  facet normal 0 -0 1
    outer loop
      vertex -0.018708 -0.015169 0.244654
      vertex -0.018288 -0.014849 0.244654
      vertex -0.020136 -0.01306 0.244654
    endloop
  endfacet
  facet normal 0 0 1
    outer loop
      vertex -0.020849 -0.010587 0.244654
      vertex -0.021328 -0.010809 0.244654
      vertex -0.019684 -0.012787 0.244654
    endloop
  endfacet
  facet normal 0 0 1
    outer loop
      vertex -0.014872 -0.018461 0.244654
      vertex -0.016677 -0.016748 0.244654
      vertex -0.017061 -0.017111 0.244654
    endloop
  endfacet
  facet normal 0 0 1
    outer loop
      vertex -0.021769 -0.008273 0.244654
      vertex -0.02227 -0.008442 0.244654
      vertex -0.020849 -0.010587 0.244654
    endloop
  endfacet
  facet normal 0 -0 1
    outer loop
      vertex -0.015214 -0.018864 0.244654
      vertex -0.014872 -0.018461 0.244654
      vertex -0.017061 -0.017111 0.244654
    endloop
  endfacet
  facet normal 0 -0 1
    outer loop
      vertex -0.020136 -0.01306 0.244654
      vertex -0.019684 -0.012787 0.244654
      vertex -0.021328 -0.010809 0.244654
    endloop
  endfacet
  facet normal 0 0 1
    outer loop
      vertex -0.022435 -0.005872 0.244654
      vertex -0.022951 -0.005986 0.244654
      vertex -0.021769 -0.008273 0.244654
    endloop
  endfacet
  facet normal 0 -0 1
    outer loop
      vertex -0.021328 -0.010809 0.244654
      vertex -0.020849 -0.010587 0.244654
      vertex -0.02227 -0.008442 0.244654
    endloop
  endfacet
  facet normal 0 0 1
    outer loop
      vertex -0.022837 -0.003414 0.244654
      vertex -0.023362 -0.003471 0.244654
      vertex -0.022435 -0.005872 0.244654
    endloop
  endfacet
  facet normal 0 -0 1
    outer loop
      vertex -0.02227 -0.008442 0.244654
      vertex -0.021769 -0.008273 0.244654
      vertex -0.022951 -0.005986 0.244654
    endloop
  endfacet
  facet normal -0 0 1
    outer loop
      vertex -0.0235 -0.000927 0.244654
      vertex -0.023362 -0.003471 0.244654
      vertex -0.022972 -0.000927 0.244654
    endloop
  endfacet
  facet normal 0 -0 1
    outer loop
      vertex -0.013188 -0.020406 0.244654
      vertex -0.012891 -0.019968 0.244654
      vertex -0.015214 -0.018864 0.244654
    endloop
  endfacet
  facet normal 0 -0 1
    outer loop
      vertex -0.022951 -0.005986 0.244654
      vertex -0.022435 -0.005872 0.244654
      vertex -0.023362 -0.003471 0.244654
    endloop
  endfacet
  facet normal 0 0 1
    outer loop
      vertex -0.022837 -0.003414 0.244654
      vertex -0.022972 -0.000927 0.244654
      vertex -0.023362 -0.003471 0.244654
    endloop
  endfacet
  facet normal 0 0 1
    outer loop
      vertex -0.022837 0.00156 0.244654
      vertex -0.023362 0.001617 0.244654
      vertex -0.022972 -0.000927 0.244654
    endloop
  endfacet
  facet normal -0 0 1
    outer loop
      vertex -0.003716 -0.023629 0.244654
      vertex -0.003802 -0.024151 0.244654
      vertex -0.001244 -0.023898 0.244654
    endloop
  endfacet
  facet normal 0 0 1
    outer loop
      vertex 0.001272 -0.024427 0.244654
      vertex -0.001244 -0.023898 0.244654
      vertex -0.001272 -0.024427 0.244654
    endloop
  endfacet
  facet normal -0 -0 1
    outer loop
      vertex -0.006287 -0.023603 0.244654
      vertex -0.003802 -0.024151 0.244654
      vertex -0.006146 -0.023094 0.244654
    endloop
  endfacet
  facet normal 0 -0 1
    outer loop
      vertex -0.001272 -0.024427 0.244654
      vertex -0.001244 -0.023898 0.244654
      vertex -0.003802 -0.024151 0.244654
    endloop
  endfacet
  facet normal 0 0 1
    outer loop
      vertex -0.003716 -0.023629 0.244654
      vertex -0.006146 -0.023094 0.244654
      vertex -0.003802 -0.024151 0.244654
    endloop
  endfacet
  facet normal 0 0 1
    outer loop
      vertex -0.008503 -0.022298 0.244654
      vertex -0.008698 -0.02279 0.244654
      vertex -0.006146 -0.023094 0.244654
    endloop
  endfacet
  facet normal 0 0 1
    outer loop
      vertex -0.01076 -0.021252 0.244654
      vertex -0.011008 -0.02172 0.244654
      vertex -0.008503 -0.022298 0.244654
    endloop
  endfacet
  facet normal 0 -0 1
    outer loop
      vertex -0.006287 -0.023603 0.244654
      vertex -0.006146 -0.023094 0.244654
      vertex -0.008698 -0.02279 0.244654
    endloop
  endfacet
  facet normal 0 0 1
    outer loop
      vertex -0.012891 -0.019968 0.244654
      vertex -0.013188 -0.020406 0.244654
      vertex -0.01076 -0.021252 0.244654
    endloop
  endfacet
  facet normal 0 -0 1
    outer loop
      vertex -0.008698 -0.02279 0.244654
      vertex -0.008503 -0.022298 0.244654
      vertex -0.011008 -0.02172 0.244654
    endloop
  endfacet
  facet normal 0 0 1
    outer loop
      vertex -0.014872 -0.018461 0.244654
      vertex -0.015214 -0.018864 0.244654
      vertex -0.012891 -0.019968 0.244654
    endloop
  endfacet
  facet normal 0 -0 1
    outer loop
      vertex -0.011008 -0.02172 0.244654
      vertex -0.01076 -0.021252 0.244654
      vertex -0.013188 -0.020406 0.244654
    endloop
  endfacet
endsolid LIGGGHTS_STL_EXPORT
